<?xml version="1.0" standalone="no"?>
<!DOCTYPE svg PUBLIC "-//W3C//DTD SVG 1.1//EN" "http://www.w3.org/Graphics/SVG/1.1/DTD/svg11.dtd" >
<svg xmlns="http://www.w3.org/2000/svg">
<metadata></metadata>
<defs>
<font id="rijksoverheidsanstextbold" horiz-adv-x="1075" >
<font-face units-per-em="2048" ascent="1657" descent="-391" />
<missing-glyph horiz-adv-x="409" />
<glyph unicode="&#xfb01;" horiz-adv-x="1212" d="M45 825v191h131v65q0 123 44 199t149.5 116t281.5 40q234 0 439 -17l-17 -192q-225 12 -422 12q-130 0 -177.5 -34t-47.5 -122v-67h397l250 4v-1020h-252v825h-393v-825h-252v825h-131z" />
<glyph unicode="&#xfb02;" horiz-adv-x="1212" d="M45 825v191h131v65q0 179 101.5 267t326.5 88q110 0 217 -17l252 13v-1432h-252v1227q-86 12 -211 12q-102 0 -143 -35.5t-41 -120.5v-67h221v-191h-219v-825h-252v825h-131z" />
<glyph unicode="&#xfb03;" horiz-adv-x="1896" d="M45 825v191h131v65q0 355 410 355q78 0 147 -17l-18 -192q-68 12 -121 12q-88 0 -128 -38t-40 -118v-67h432v65q0 184 108.5 269.5t368.5 85.5q234 0 437 -17l-15 -192q-228 12 -422 12q-130 0 -177.5 -34t-47.5 -122v-67h395l252 4v-1020h-252v825h-395v-825h-252v825 h-430v-825h-252v825h-131z" />
<glyph unicode="&#xfb04;" horiz-adv-x="1896" d="M45 825v191h131v65q0 355 410 355q78 0 147 -17l-18 -192q-68 12 -121 12q-88 0 -128 -38t-40 -118v-67h432v65q0 179 102 267t328 88q105 0 217 -17l252 13v-1432h-252v1227q-83 12 -213 12q-101 0 -141.5 -35.5t-40.5 -120.5v-67h219v-191h-219v-825h-252v825h-430 v-825h-252v825h-131z" />
<glyph horiz-adv-x="0" />
<glyph horiz-adv-x="682" />
<glyph unicode=" "  horiz-adv-x="409" />
<glyph unicode="&#x09;" horiz-adv-x="409" />
<glyph unicode="&#xa0;" horiz-adv-x="409" />
<glyph unicode="!" horiz-adv-x="626" d="M147 164q0 79 42.5 129.5t121.5 50.5q82 0 125 -46t43 -134q0 -77 -42.5 -125.5t-121.5 -48.5q-82 0 -125 44t-43 130zM182 424v909l283 23l-25 -627v-299z" />
<glyph unicode="&#x22;" horiz-adv-x="708" d="M72 1413h243l-28 -448h-187zM393 1413h244l-29 -448h-186z" />
<glyph unicode="#" horiz-adv-x="1267" d="M37 340l16 176h252l39 313h-242l17 177h248l43 337h180l-41 -337h256l43 337h182l-43 -337h246l-19 -177h-249l-39 -313h241l-18 -176h-246l-39 -340h-182l41 340h-258l-41 -340h-180l41 340h-248zM487 516h258l39 313h-258z" />
<glyph unicode="$" d="M88 8v230q178 -33 348 -33q131 0 206 48.5t75 115.5q0 63 -41 103t-160 81l-168 57q-244 81 -244 342q0 144 92.5 246.5t260.5 138.5v222h182v-201q144 0 285 -27l-17 -221q-150 27 -284 27q-131 0 -194.5 -42.5t-63.5 -113.5q0 -59 37.5 -97t127.5 -67l166 -51 q149 -47 217 -130.5t68 -215.5q0 -155 -97.5 -267t-269.5 -153v-215h-182v201h-4q-207 0 -340 22z" />
<glyph unicode="%" horiz-adv-x="1683" d="M45 956q0 99 28.5 177t77 126.5t110.5 73.5t132 25q71 0 129.5 -21t105.5 -65.5t73 -120.5t26 -178q0 -95 -29.5 -171t-79 -122.5t-111.5 -71t-130 -24.5q-332 0 -332 372zM260 975q0 -119 32 -166t93 -47q58 0 92.5 45.5t34.5 144.5q0 230 -125 230q-56 0 -91.5 -48 t-35.5 -159zM485 8l545 1383l166 -66l-545 -1382zM956 358q0 99 28.5 177t77.5 126.5t111 73.5t132 25q71 0 130 -21t105.5 -65.5t72 -120.5t25.5 -178q0 -95 -29 -171t-78.5 -122.5t-111.5 -71t-131 -24.5q-332 0 -332 372zM1174 377q0 -119 31 -166t91 -47q129 0 129 190 q0 230 -127 230q-124 0 -124 -207z" />
<glyph unicode="&#x26;" horiz-adv-x="1433" d="M92 371q0 108 73 192.5t210 126.5v6q-114 28 -174 100t-60 183q0 166 126.5 274.5t342.5 108.5q140 0 246 -33l-16 -213q-116 25 -228 25q-94 0 -147 -41t-53 -113q0 -87 71.5 -133.5t214.5 -46.5h66v-217h-86q-148 0 -226.5 -56.5t-78.5 -148.5q0 -176 282 -176 q175 0 281 122.5t106 338.5h-127v198h490v-198h-123q0 -322 -180 -504t-486 -182q-273 0 -398.5 96.5t-125.5 290.5z" />
<glyph unicode="'" horiz-adv-x="387" d="M72 1413h243l-28 -448h-187z" />
<glyph unicode="(" horiz-adv-x="573" d="M59 485q0 233 80 453t228 405h176q-146 -203 -217.5 -407t-71.5 -442q0 -208 76.5 -432.5t212.5 -417.5h-176q-147 186 -227.5 401.5t-80.5 439.5z" />
<glyph unicode=")" horiz-adv-x="573" d="M31 -356q144 204 216 408.5t72 441.5q0 209 -76.5 433t-211.5 416h176q148 -185 227.5 -400t79.5 -439q0 -236 -79 -456t-228 -404h-176z" />
<glyph unicode="*" horiz-adv-x="1116" d="M113 1032l53 182l280 -112l37 -15v39l-22 299h194l-20 -299v-36l29 14l278 113l62 -185l-287 -71l-41 -13l24 -28l191 -228l-154 -114l-155 249l-25 31l-22 -31l-154 -247l-160 108l193 230l24 30l-39 10z" />
<glyph unicode="+" d="M133 508v199h303v303h199v-303h305v-199h-305v-305h-199v305h-303z" />
<glyph unicode="," horiz-adv-x="530" d="M63 -225l115 262q-80 43 -80 139q0 70 46 119t120 49q76 0 122 -45.5t46 -134.5q0 -62 -53 -157t-114 -163.5t-87 -68.5h-115z" />
<glyph unicode="-" horiz-adv-x="798" d="M135 473v229h529v-229h-529z" />
<glyph unicode="." horiz-adv-x="530" d="M98 164q0 79 43 129.5t123 50.5t124 -46.5t44 -133.5q0 -77 -43 -125.5t-123 -48.5t-124 44.5t-44 129.5z" />
<glyph unicode="/" horiz-adv-x="645" d="M-80 -328l623 1712l182 -69l-623 -1712z" />
<glyph unicode="0" d="M59 487q0 122 39 226t106 173.5t157 108.5t190 39q210 0 337.5 -132.5t127.5 -375.5q0 -123 -39.5 -226.5t-107.5 -172t-157 -107t-188 -38.5q-217 0 -341 126t-124 379zM307 500q0 -307 232 -307q101 0 165 87.5t64 241.5q0 150 -60.5 225.5t-170.5 75.5 q-102 0 -166 -87.5t-64 -235.5z" />
<glyph unicode="1" horiz-adv-x="778" d="M47 766v195q192 55 375 55h135v-1016h-250v788q-131 0 -260 -22z" />
<glyph unicode="2" horiz-adv-x="1044" d="M86 188q41 177 256 285l145 72q78 40 109 72.5t31 74.5q0 48 -50.5 76.5t-142.5 28.5q-146 0 -293 -39v227q177 45 328 45q202 0 308 -87t106 -243q0 -105 -69.5 -188t-195.5 -133l-126 -49q-102 -45 -156 -107v-2h602v-221h-819z" />
<glyph unicode="3" horiz-adv-x="950" d="M57 -139h170q188 0 289.5 63t101.5 178q0 72 -56.5 131.5t-153.5 85.5q-127 -59 -242 -81l-43 196q343 91 500 365h-545v217h745l33 -205q-55 -113 -120.5 -193.5t-160.5 -142.5v-8q141 -32 221.5 -125t80.5 -225q0 -202 -177.5 -332.5t-468.5 -130.5h-174v207z" />
<glyph unicode="4" horiz-adv-x="1081" d="M55 166q119 596 570 854h258v-815h155v-205h-155v-346h-244v346h-530zM274 205h367v586h-4q-289 -202 -363 -586z" />
<glyph unicode="5" horiz-adv-x="1048" d="M119 -141h180q173 0 276 68.5t103 187.5q0 101 -74 155t-225 54q-99 0 -242 -15v707h733v-217h-526v-260q74 6 137 6q221 0 337 -108.5t116 -289.5q0 -219 -177 -356t-468 -137h-170v205z" />
<glyph unicode="6" d="M76 545q0 201 56.5 356.5t160 254t243.5 148.5t312 50h113v-207h-117q-181 0 -305.5 -78t-184.5 -231l4 -4q102 57 254 57q185 0 292.5 -110.5t107.5 -309.5q0 -142 -64 -254.5t-172 -173.5t-239 -61q-209 0 -335 142t-126 421zM334 512q0 -169 65 -253.5t158 -84.5 q81 0 140 66t59 192q0 119 -64 184.5t-166 65.5q-106 0 -186 -23q-6 -43 -6 -147z" />
<glyph unicode="7" horiz-adv-x="970" d="M43 797v219h842l37 -209q-457 -490 -457 -1155h-240q0 316 97.5 590.5t318.5 543.5v11h-598z" />
<glyph unicode="8" d="M70 313q0 104 61.5 189t202.5 166l-64 47q-82 62 -113.5 125t-31.5 157q0 67 34 133.5t90.5 117.5t135.5 82.5t164 31.5q193 0 302.5 -91.5t109.5 -236.5q0 -111 -53.5 -186.5t-178.5 -147.5l78 -45q113 -65 158 -136t45 -177q0 -158 -133.5 -259t-346.5 -101 q-215 0 -337.5 93t-122.5 238zM326 344q0 -77 61 -124.5t164 -47.5q90 0 146.5 42.5t56.5 107.5q0 48 -30 88t-108 90l-139 88q-85 -63 -118 -116.5t-33 -127.5zM371 1014q0 -56 18 -86t72 -68l123 -86q76 55 110.5 111t34.5 123q0 76 -48 119.5t-136 43.5q-79 0 -126.5 -43 t-47.5 -114z" />
<glyph unicode="9" d="M70 545q0 215 135.5 352t335.5 137q210 0 333 -142t123 -419q0 -171 -37.5 -308t-105.5 -232t-164.5 -158.5t-211.5 -93t-251 -29.5h-110v205h116q180 0 307 83t185 240l-4 4q-109 -59 -252 -59q-179 0 -289 111.5t-110 308.5zM328 586q0 -127 57.5 -189.5t155.5 -62.5 q121 0 192 26q8 43 8 144q0 173 -61 255.5t-160 82.5q-89 0 -140.5 -64.5t-51.5 -191.5z" />
<glyph unicode=":" horiz-adv-x="530" d="M98 164q0 79 43 129.5t123 50.5t124 -46.5t44 -133.5q0 -77 -43 -125.5t-123 -48.5t-124 44.5t-44 129.5zM98 801q0 77 43 127.5t123 50.5t124 -46t44 -132q0 -77 -43 -126.5t-123 -49.5t-124 45t-44 131z" />
<glyph unicode=";" horiz-adv-x="530" d="M63 -225l115 262q-80 43 -80 139q0 70 46 119t120 49q76 0 122 -45.5t46 -134.5q0 -62 -53 -157t-114 -163.5t-87 -68.5h-115zM98 801q0 77 43 127.5t123 50.5t124 -46t44 -132q0 -77 -43 -126.5t-123 -49.5t-124 45t-44 131z" />
<glyph unicode="&#x3c;" d="M156 539v137l639 391l102 -180l-471 -277v-4l471 -278l-102 -181z" />
<glyph unicode="=" d="M133 324v198h807v-198h-807zM133 692v199h807v-199h-807z" />
<glyph unicode="&#x3e;" d="M178 328l471 276v4l-471 279l103 180l639 -391v-137l-639 -392z" />
<glyph unicode="?" horiz-adv-x="942" d="M92 1069v223q169 66 354 66q177 0 285.5 -85.5t108.5 -225.5q0 -123 -49.5 -196t-174.5 -140l-100 -52q-84 -46 -84 -110q0 -54 31 -115l-205 -10q-65 65 -65 156q0 72 35.5 125t119.5 102l109 59q64 36 88 69t24 79q0 49 -49 80.5t-139 31.5q-143 0 -289 -57zM201 164 q0 79 43 129.5t123 50.5t124 -46.5t44 -133.5q0 -77 -43.5 -125.5t-122.5 -48.5q-80 0 -124 44.5t-44 129.5z" />
<glyph unicode="@" horiz-adv-x="1914" d="M88 354q0 179 50.5 337.5t140.5 277.5t209 205.5t259.5 131t288.5 44.5q234 0 414 -91.5t278.5 -259.5t98.5 -389q0 -146 -43 -267.5t-114 -198.5t-161 -119.5t-186 -42.5q-100 0 -156.5 42.5t-81.5 131.5h-6q-61 -80 -148.5 -124t-191.5 -44q-122 0 -196 100.5 t-74 319.5q0 132 45 250t118 197.5t164.5 126t184.5 46.5q91 0 147 -20l195 22v-723q0 -157 82 -157q47 0 94 29t87 83.5t64.5 143.5t24.5 198q0 281 -178 443.5t-475 162.5q-154 0 -295.5 -60.5t-249.5 -168t-172.5 -267t-64.5 -345.5q0 -152 41 -272.5t112.5 -196 t165 -115t201.5 -39.5q76 0 171 15.5t167 41.5v-131q-145 -65 -359 -65q-104 0 -197.5 25.5t-177.5 83t-144.5 143t-96 212.5t-35.5 283zM725 438q0 -132 30.5 -182.5t90.5 -50.5q66 0 117.5 22t107.5 76v508q-50 4 -102 4q-102 0 -173 -101t-71 -276z" />
<glyph unicode="A" horiz-adv-x="1232" d="M23 0l393 1343h401l391 -1343h-307l-74 289h-454l-74 -289h-276zM426 502h346l-166 620h-14z" />
<glyph unicode="B" horiz-adv-x="1196" d="M170 0v1343h375q256 0 381 -86.5t125 -234.5q0 -121 -57.5 -201t-153.5 -116v-3q126 -26 196 -104t70 -195q0 -194 -131 -298.5t-387 -104.5h-418zM432 211h146q118 0 181.5 49t63.5 143q0 90 -71.5 136.5t-233.5 46.5h-86v-375zM432 782h94q123 0 183.5 45t60.5 142 q0 84 -53 124t-180 40h-105v-351z" />
<glyph unicode="C" horiz-adv-x="1093" d="M96 631q0 177 54.5 317.5t150 229t221 134.5t271.5 46q126 0 264 -27l-19 -225q-116 20 -254 20q-86 0 -159 -30t-128.5 -87t-87.5 -148t-32 -206q0 -110 33 -197.5t89.5 -140.5t126.5 -80.5t148 -27.5q135 0 285 27v-218q-88 -20 -142.5 -26t-156.5 -6q-143 0 -263 40.5 t-210 118.5t-140.5 202.5t-50.5 283.5z" />
<glyph unicode="D" horiz-adv-x="1372" d="M170 0v1343h391q346 0 530.5 -165t184.5 -467q0 -357 -190 -534t-537 -177h-379zM436 217h125q207 0 320.5 116.5t113.5 364.5q0 207 -119 317.5t-331 110.5h-109v-909z" />
<glyph unicode="E" horiz-adv-x="1003" d="M170 0v1343h717v-217h-451v-327h416v-217h-416v-365h457v-217h-723z" />
<glyph unicode="F" horiz-adv-x="1001" d="M170 0v1343h717v-217h-451v-344h428v-217h-428v-565h-266z" />
<glyph unicode="G" horiz-adv-x="1300" d="M96 631q0 179 54.5 319t153.5 228.5t232 134t295 45.5q164 0 308 -27l-19 -225q-141 20 -297 20q-207 0 -326.5 -122t-119.5 -349q0 -216 113 -334t290 -118q71 0 144 8v254h-197v217h453v-657q-195 -39 -408 -39q-314 0 -495 165.5t-181 479.5z" />
<glyph unicode="H" horiz-adv-x="1396" d="M170 0v1343h266v-540h525v540h266v-1343h-266v571h-525v-571h-266z" />
<glyph unicode="I" horiz-adv-x="604" d="M170 0v1343h266v-1343h-266z" />
<glyph unicode="J" horiz-adv-x="720" d="M16 -4v227q62 -8 107 -8q78 0 124 53t46 152v923h266v-927q0 -428 -438 -428q-69 0 -105 8z" />
<glyph unicode="K" horiz-adv-x="1269" d="M170 0v1343h266v-548h111l387 548h305l-459 -628l473 -715h-331l-371 578h-115v-578h-266z" />
<glyph unicode="L" horiz-adv-x="923" d="M170 0v1343h266v-1126h455v-217h-721z" />
<glyph unicode="M" horiz-adv-x="1744" d="M152 0l55 1343h418l252 -798h10l254 798h391l63 -1343h-262l-45 1092h-12l-268 -838h-283l-281 838h-12l-35 -1092h-245z" />
<glyph unicode="N" horiz-adv-x="1372" d="M170 0v1343h405l381 -1085h13v1085h235v-1343h-407l-379 1085h-12v-1085h-236z" />
<glyph unicode="O" horiz-adv-x="1480" d="M96 659q0 167 53 302.5t144.5 222t210 132.5t252.5 46q133 0 245.5 -41.5t198.5 -123t135 -213t49 -300.5q0 -167 -52.5 -302.5t-142.5 -221.5t-208 -132t-252 -46t-247.5 41.5t-200.5 122.5t-136 212.5t-49 300.5zM377 682q0 -122 28 -213t79 -144.5t115 -79.5t142 -26 q71 0 134 26t115.5 77.5t83 139t30.5 200.5q0 122 -28 213.5t-78.5 145t-114.5 79.5t-142 26q-72 0 -135.5 -26t-115.5 -78t-82.5 -139.5t-30.5 -200.5z" />
<glyph unicode="P" horiz-adv-x="1134" d="M170 0v1343h436q223 0 347 -115.5t124 -307.5q0 -213 -136 -342t-359 -129q-83 0 -146 8v-457h-266zM432 670q49 -8 115 -8q117 0 184.5 63t67.5 176q0 112 -59 172t-175 60h-133v-463z" />
<glyph unicode="Q" horiz-adv-x="1480" d="M96 659q0 167 53 302.5t144.5 222t210 132.5t252.5 46q133 0 245.5 -41.5t198.5 -123t135 -213t49 -300.5q0 -240 -102.5 -406t-275.5 -241l342 -391h-328l-277 336h-14q-134 0 -247.5 41.5t-200.5 122.5t-136 212.5t-49 300.5zM377 682q0 -122 28 -213t79 -144.5 t115 -79.5t142 -26q71 0 134 26t115.5 77.5t83 139t30.5 200.5q0 122 -28 213.5t-78.5 145t-114.5 79.5t-142 26q-72 0 -135.5 -26t-115.5 -78t-82.5 -139.5t-30.5 -200.5z" />
<glyph unicode="R" horiz-adv-x="1193" d="M170 0v1343h401q251 0 382.5 -102.5t131.5 -273.5q0 -133 -64.5 -234.5t-176.5 -154.5l356 -578h-313l-293 502h-158v-502h-266zM432 709h143q105 0 168.5 61t63.5 166q0 100 -60.5 148.5t-193.5 48.5h-121v-424z" />
<glyph unicode="S" horiz-adv-x="1083" d="M96 8v230q178 -33 348 -33q131 0 206 48.5t75 115.5q0 63 -41 103t-160 81l-168 57q-243 80 -243 342q0 181 141 293.5t391 112.5q146 0 287 -27l-17 -221q-150 27 -284 27q-131 0 -194.5 -42.5t-63.5 -113.5q0 -59 38 -97t128 -67l166 -51q149 -47 216.5 -130.5 t67.5 -215.5q0 -195 -148.5 -314.5t-404.5 -119.5q-207 0 -340 22z" />
<glyph unicode="T" horiz-adv-x="1093" d="M45 1126v217h1004v-217h-369v-1126h-266v1126h-369z" />
<glyph unicode="U" horiz-adv-x="1335" d="M154 465v878h266v-845q0 -279 256 -279q124 0 192 71t68 204v849h246v-858q0 -226 -139.5 -364.5t-378.5 -138.5q-255 0 -382.5 123.5t-127.5 359.5z" />
<glyph unicode="V" horiz-adv-x="1218" d="M23 1343h296l299 -1097h13l289 1097h276l-389 -1343h-397z" />
<glyph unicode="W" horiz-adv-x="1921" d="M23 1343h296l254 -1097h13l260 819l-86 278h287l317 -1097h12l248 1097h274l-348 -1343h-368l-215 756h-11l-227 -756h-360z" />
<glyph unicode="X" horiz-adv-x="1202" d="M31 0l422 688l-392 655h312l235 -421h8l238 421h283l-387 -636l421 -707h-309l-270 475h-8l-267 -475h-286z" />
<glyph unicode="Y" horiz-adv-x="1128" d="M16 1343h299l267 -565h8l260 565h262l-414 -806v-537h-266v537z" />
<glyph unicode="Z" horiz-adv-x="1046" d="M57 0v211l619 903v8h-584v221h891v-210l-621 -904v-8h625v-221h-930z" />
<glyph unicode="[" horiz-adv-x="559" d="M166 -365v1708h348v-151h-166v-1407h166v-150h-348z" />
<glyph unicode="\" horiz-adv-x="645" d="M-80 1315l182 69l623 -1712l-182 -69z" />
<glyph unicode="]" horiz-adv-x="559" d="M45 -213h166v1407h-166v149h348v-1708h-348v152z" />
<glyph unicode="^" d="M92 920l447 448l446 -448l-137 -138l-309 312l-310 -312z" />
<glyph unicode="_" horiz-adv-x="1048" d="M12 -78h1024v-196h-1024v196z" />
<glyph unicode="`" horiz-adv-x="858" d="M168 1425h262l148 -297h-187z" />
<glyph unicode="a" horiz-adv-x="1030" d="M63 272q0 151 115 237.5t348 86.5q27 0 73.5 -1t64.5 -1v45q0 82 -52.5 123t-173.5 41q-136 0 -286 -62l-33 211q182 76 366 76q422 0 422 -364v-664h-235v63q-118 -75 -285 -75q-155 0 -239.5 77t-84.5 207zM319 293q0 -51 38.5 -80t105.5 -29q105 0 201 45v187 q-78 4 -129 4q-216 0 -216 -127z" />
<glyph unicode="b" horiz-adv-x="1144" d="M139 10v1409l252 13v-484q121 80 254 80q197 0 307.5 -124.5t110.5 -360.5q0 -262 -156.5 -408.5t-419.5 -146.5q-165 0 -348 22zM389 211q54 -10 113 -10q305 0 305 323q0 137 -63.5 205t-176.5 68q-88 0 -178 -33v-553z" />
<glyph unicode="c" horiz-adv-x="847" d="M82 489q0 124 40 227.5t109.5 172t161 106t195.5 37.5q117 0 213 -24l-21 -228q-93 19 -176 19q-122 0 -194 -79t-72 -220q0 -149 73 -222t195 -73q90 0 191 26v-215q-95 -28 -215 -28q-235 0 -367.5 125.5t-132.5 375.5z" />
<glyph unicode="d" horiz-adv-x="1148" d="M82 485q0 246 151 394.5t385 148.5q74 0 140 -14v405l252 13v-1432h-244v70q-116 -82 -262 -82q-197 0 -309.5 127.5t-112.5 369.5zM338 498q0 -150 65.5 -221.5t178.5 -71.5q91 0 178 41v559q-78 10 -137 10q-130 0 -207.5 -84.5t-77.5 -232.5z" />
<glyph unicode="e" horiz-adv-x="1032" d="M82 506q0 250 131.5 389t333.5 139q188 0 297.5 -111t109.5 -305q0 -124 -8 -184h-622q23 -121 97.5 -178t211.5 -57q149 0 291 45v-205q-91 -27 -159.5 -39t-164.5 -12q-244 0 -381 130t-137 388zM324 614h389q0 101 -50.5 164.5t-134.5 63.5q-80 0 -135.5 -60 t-68.5 -168z" />
<glyph unicode="f" horiz-adv-x="684" d="M45 825v191h131v65q0 355 410 355q78 0 147 -17l-18 -192q-68 12 -121 12q-88 0 -128 -38t-40 -118v-67h246v-191h-244v-825h-252v825h-131z" />
<glyph unicode="g" horiz-adv-x="1044" d="M39 -143q0 72 44 130t120 87v6q-41 15 -65.5 52t-24.5 87t32.5 92.5t90.5 65.5v6q-75 37 -117.5 103.5t-42.5 160.5q0 179 117.5 280t314.5 101q77 0 160 -22h331v-164h-159v-6q37 -22 62.5 -71t25.5 -114q0 -161 -113 -248.5t-326 -87.5q-61 0 -131 17q-41 -20 -41 -60 q0 -71 134 -71l235 -2q170 -1 249 -64t79 -184q0 -156 -135.5 -254t-403.5 -98q-217 0 -326.5 68.5t-109.5 189.5zM264 -90q0 -61 58 -95t174 -34q152 0 223.5 35t71.5 94q0 89 -134 92l-342 10q-51 -39 -51 -102zM311 659q0 -180 193 -180q194 0 194 195q0 180 -192 180 q-89 0 -142 -50t-53 -145z" />
<glyph unicode="h" horiz-adv-x="1126" d="M139 0v1419l252 13v-484q126 80 260 80q166 0 259.5 -93.5t93.5 -268.5v-666h-252v612q0 97 -44 141t-133 44q-101 0 -184 -33v-764h-252z" />
<glyph unicode="i" horiz-adv-x="530" d="M119 1292q0 60 38.5 102t106.5 42q69 0 107.5 -40.5t38.5 -103.5q0 -58 -39 -98.5t-107 -40.5q-69 0 -107 38.5t-38 100.5zM139 0v1010l252 10v-1020h-252z" />
<glyph unicode="j" horiz-adv-x="530" d="M-14 -203q78 20 115.5 71t37.5 140v1002l252 10v-1006q0 -97 -29.5 -172t-83.5 -123.5t-121.5 -77.5t-150.5 -40zM119 1292q0 60 38.5 102t106.5 42q69 0 107.5 -40.5t38.5 -103.5q0 -58 -39 -98.5t-107 -40.5q-69 0 -107 38.5t-38 100.5z" />
<glyph unicode="k" horiz-adv-x="1064" d="M139 0v1419l252 13v-777h84l281 361h282l-342 -426l367 -590h-303l-271 465h-98v-465h-252z" />
<glyph unicode="l" horiz-adv-x="530" d="M139 0v1419l252 13v-1432h-252z" />
<glyph unicode="m" horiz-adv-x="1718" d="M139 0v1010l244 10v-76q69 46 130 65t136 19q181 0 277 -113q148 113 319 113q167 0 258.5 -94t91.5 -270v-664h-252v608q0 99 -43.5 144t-130.5 45q-54 0 -90 -6.5t-86 -26.5v-764h-252v608q0 100 -44 144.5t-130 44.5q-89 0 -176 -33v-764h-252z" />
<glyph unicode="n" horiz-adv-x="1126" d="M139 0v1010l244 10v-76q125 84 268 84q166 0 259.5 -93.5t93.5 -268.5v-666h-252v612q0 97 -44 141t-133 44q-94 0 -184 -33v-764h-252z" />
<glyph unicode="o" horiz-adv-x="1159" d="M82 487q0 122 41.5 226t111.5 173.5t163 108.5t196 39q219 0 351 -131.5t132 -376.5q0 -122 -41.5 -225.5t-112 -172.5t-163 -107.5t-195.5 -38.5q-219 0 -351 130.5t-132 374.5zM338 496q0 -145 65 -219t177 -74q104 0 172.5 83.5t68.5 233.5q0 144 -65 218.5t-176 74.5 q-105 0 -173.5 -83t-68.5 -234z" />
<glyph unicode="p" horiz-adv-x="1144" d="M139 -391v1401l244 10v-78q118 86 262 86q197 0 307.5 -122.5t110.5 -360.5q0 -265 -150 -411t-403 -146q-60 0 -119 12v-391h-252zM389 211q61 -10 115 -10q143 0 223 80.5t80 244.5q0 135 -63 203t-175 68q-93 0 -180 -33v-553z" />
<glyph unicode="q" horiz-adv-x="1148" d="M82 475q0 257 151 405t416 148q168 0 361 -20v-1399h-250v457q-115 -78 -260 -78q-189 0 -303.5 125.5t-114.5 361.5zM338 492q0 -146 66 -216.5t178 -70.5q52 0 88.5 8.5t89.5 32.5v559q-72 10 -129 10q-138 0 -215.5 -82.5t-77.5 -240.5z" />
<glyph unicode="r" horiz-adv-x="710" d="M139 0v1010l250 10v-117q50 67 100 96t111 29q67 0 119 -14l-17 -240q-60 14 -114 14q-104 0 -197 -67v-721h-252z" />
<glyph unicode="s" horiz-adv-x="880" d="M80 705q0 144 115.5 233.5t320.5 89.5q133 0 250 -20l-14 -211q-129 20 -248 20q-88 0 -131 -23t-43 -61q0 -36 21 -56.5t91 -39.5l121 -33q130 -36 188 -103.5t58 -172.5q0 -159 -115.5 -249.5t-316.5 -90.5q-182 0 -295 26v217q133 -34 289 -34q102 0 144 24t42 68 q0 36 -26.5 58.5t-102.5 45.5l-129 39q-219 64 -219 273z" />
<glyph unicode="t" horiz-adv-x="737" d="M53 825v191h123v186l250 21v-207h256v-191h-256v-458q0 -82 41 -123t111 -41q61 0 129 18v-209q-96 -24 -205 -24q-153 0 -239.5 88t-86.5 256v493h-123z" />
<glyph unicode="u" horiz-adv-x="1112" d="M123 356v654l250 10v-614q0 -104 39 -148.5t129 -44.5q89 0 182 41v756l250 10v-1020h-242v70q-76 -48 -130.5 -69t-125.5 -21q-176 0 -264 96.5t-88 279.5z" />
<glyph unicode="v" horiz-adv-x="987" d="M4 1016h289l207 -821h16l205 821h262l-313 -1016h-348z" />
<glyph unicode="w" horiz-adv-x="1525" d="M6 1016h289l154 -819h10l205 630l-52 189h250l223 -819h11l159 819h263l-263 -1016h-340l-147 555h-6l-172 -555h-326z" />
<glyph unicode="x" horiz-adv-x="964" d="M16 0l320 522l-303 494h295l170 -320h8l149 320h269l-291 -490l313 -526h-282l-191 346h-8l-180 -346h-269z" />
<glyph unicode="y" horiz-adv-x="970" d="M16 1016h277l213 -793h8l188 793h254l-338 -1155q-79 -264 -387 -264q-78 0 -137 10v200q60 -8 129 -8q58 0 105.5 35t68.5 100l29 89h-98z" />
<glyph unicode="z" horiz-adv-x="899" d="M68 0v190l467 619v4h-445v203h735v-189l-467 -618v-6h473v-203h-763z" />
<glyph unicode="{" horiz-adv-x="653" d="M41 418v147q121 18 177 63.5t56 104.5v367q0 120 68.5 189t189.5 69q62 0 95 -8v-142q-93 0 -130.5 -21.5t-37.5 -78.5v-346q0 -240 -316 -273v-4q163 -11 239.5 -67t76.5 -166v-358q0 -68 37.5 -91.5t134.5 -23.5v-137q-51 -15 -92 -15q-265 0 -265 209v391 q0 135 -233 191z" />
<glyph unicode="|" horiz-adv-x="481" d="M145 -356v1699h191v-1699h-191z" />
<glyph unicode="}" horiz-adv-x="653" d="M23 1206v137q54 15 94 15q264 0 264 -211v-389q0 -135 231 -191v-147q-120 -18 -175.5 -63.5t-55.5 -104.5v-367q0 -120 -68.5 -189t-189.5 -69q-61 0 -94 8v142q91 0 128.5 21.5t37.5 78.5v346q0 240 315 273v4q-163 11 -239 67t-76 166v359q0 67 -37 90.5t-135 23.5z " />
<glyph unicode="~" d="M123 639q110 149 262 149q46 0 95.5 -24t85 -53.5t79.5 -53.5t80 -24q88 0 164 98l63 -153q-48 -72 -104.5 -109t-140.5 -37q-43 0 -92 24.5t-86 53.5t-82.5 53.5t-81.5 24.5q-44 0 -91 -27.5t-86 -77.5z" />
<glyph unicode="&#xa1;" horiz-adv-x="626" d="M147 852q0 76 42.5 125t121.5 49q82 0 125 -44.5t43 -129.5q0 -79 -42.5 -129.5t-121.5 -50.5q-82 0 -125 46t-43 134zM162 -340l24 627v299l258 6v-909z" />
<glyph unicode="&#xa2;" d="M166 653q0 205 100.5 343.5t263.5 181.5v208h183v-190q72 -2 164 -25l-21 -225q-112 19 -172 19q-121 0 -191.5 -79.5t-70.5 -219.5q0 -149 71 -222t193 -73q84 0 188 26v-217q-82 -24 -161 -24v-199h-183v207q-174 35 -269 157t-95 332z" />
<glyph unicode="&#xa3;" d="M82 0v213h96q28 35 39.5 72.5t11.5 103.5v223h-125v197h125v158q0 182 109 284.5t319 102.5q121 0 213 -25v-223q-88 24 -223 24q-151 0 -151 -153v-168h270v-197h-270v-209q0 -67 -7 -108t-26 -82h262q126 0 244 41v-217q-90 -37 -256 -37h-631z" />
<glyph unicode="&#xa4;" d="M121 324l121 118q-43 68 -43 164q0 93 43 164l-121 119l133 133l119 -121q73 43 164 43q87 0 163 -43l119 121l135 -133l-125 -119q45 -82 45 -164q0 -93 -43 -166l121 -114l-133 -131l-119 116q-68 -43 -163 -43q-96 0 -164 43l-119 -121zM375 606q0 -68 47.5 -115 t114.5 -47t114 47t47 115t-47 115t-114 47t-114.5 -47t-47.5 -115z" />
<glyph unicode="&#xa5;" d="M16 1343h299l240 -548h8l234 548h262l-307 -638h188v-199h-272v-135h272v-199h-268v-172h-266v172h-273v199h277v135h-277v199h191z" />
<glyph unicode="&#xa6;" horiz-adv-x="481" d="M145 209h191v-565h-191v565zM145 778v565h191v-565h-191z" />
<glyph unicode="&#xa7;" horiz-adv-x="1083" d="M96 -119q178 -33 348 -33q131 0 208 49.5t77 114.5q0 73 -70 123q-62 -16 -118 -16q-167 0 -278 111t-111 278q0 103 49 190q-88 91 -88 254q0 186 140.5 296t391.5 110q146 0 287 -27l-17 -221q-150 27 -284 27q-131 0 -194.5 -42.5t-63.5 -113.5q0 -65 43 -102 q53 18 125 18q167 0 278 -111t111 -278q0 -97 -47 -189q106 -90 106 -253q0 -197 -148 -318t-405 -121q-189 0 -340 25v229zM362 508q0 -78 52 -131t127 -53t125.5 53t50.5 131t-50.5 130t-125.5 52t-127 -52t-52 -130z" />
<glyph unicode="&#xa8;" horiz-adv-x="880" d="M137 1286q0 60 32 97.5t91 37.5q62 0 93.5 -35.5t31.5 -99.5q0 -57 -32.5 -95t-92.5 -38q-61 0 -92 34.5t-31 98.5zM500 1286q0 60 32 97.5t91 37.5q62 0 93.5 -35.5t31.5 -99.5q0 -57 -32.5 -95t-92.5 -38q-61 0 -92 34.5t-31 98.5z" />
<glyph unicode="&#xa9;" horiz-adv-x="1601" d="M104 670q0 140 55.5 268.5t149 221t222.5 147.5t270 55q187 0 347 -93t253.5 -252.5t93.5 -346.5q0 -141 -55.5 -269.5t-148.5 -222t-221.5 -148.5t-268.5 -55q-141 0 -270 55t-222.5 148.5t-149 222t-55.5 269.5zM231 670q0 -155 76 -288t207.5 -211.5t286.5 -78.5 q154 0 284.5 78.5t206.5 211.5t76 288q0 154 -76 286.5t-206.5 210.5t-284.5 78q-116 0 -221.5 -46t-182 -123.5t-121.5 -184t-45 -221.5zM399 637q0 143 64 244t168.5 148.5t238.5 47.5q65 0 174 -16l-12 -174q-86 14 -168 14q-117 0 -186.5 -64.5t-69.5 -185.5 q0 -115 70.5 -172t177.5 -57q90 0 188 18v-170q-100 -18 -198 -18q-204 0 -325.5 97.5t-121.5 287.5z" />
<glyph unicode="&#xaa;" horiz-adv-x="759" d="M43 858q0 102 81.5 158.5t252.5 56.5q25 0 56 -1t36 -1v12q0 93 -158 93q-83 0 -205 -43l-22 174q146 47 266 47q159 0 242.5 -66t83.5 -194v-416h-199v39q-83 -47 -198 -47q-116 0 -176 49.5t-60 138.5zM256 870q0 -26 27 -41.5t79 -15.5q55 0 107 8v113q-48 6 -82 6 q-67 0 -99 -19.5t-32 -50.5z" />
<glyph unicode="&#xab;" horiz-adv-x="1198" d="M100 514l332 438h244l-311 -428l311 -448h-244zM518 514l332 438h244l-312 -428l312 -448h-244z" />
<glyph unicode="&#xac;" d="M133 692v199h807v-531h-199v332h-608z" />
<glyph unicode="&#xad;" horiz-adv-x="798" d="M135 473v229h529v-229h-529z" />
<glyph unicode="&#xae;" horiz-adv-x="1601" d="M104 670q0 140 55.5 268.5t149 221t222.5 147.5t270 55q187 0 347 -93t253.5 -252.5t93.5 -346.5q0 -141 -55.5 -269.5t-148.5 -222t-221.5 -148.5t-268.5 -55q-141 0 -270 55t-222.5 148.5t-149 222t-55.5 269.5zM231 670q0 -155 76 -288t207.5 -211.5t286.5 -78.5 q154 0 284.5 78.5t206.5 211.5t76 288q0 154 -76 286.5t-206.5 210.5t-284.5 78q-116 0 -221.5 -46t-182 -123.5t-121.5 -184t-45 -221.5zM498 260v809h276q179 0 263.5 -62t84.5 -169q0 -94 -40 -158t-113 -94l207 -326h-232l-151 262h-99v-262h-196zM692 674h90 q67 0 101.5 34.5t34.5 96.5q0 56 -35 83t-125 27h-66v-241z" />
<glyph unicode="&#xaf;" horiz-adv-x="800" d="M141 1169v170h514v-170h-514z" />
<glyph unicode="&#xb0;" horiz-adv-x="778" d="M80 1042q0 131 91.5 223.5t221.5 92.5q131 0 223.5 -93t92.5 -223t-92.5 -221.5t-223.5 -91.5t-222 91.5t-91 221.5zM256 1042q0 -60 40 -100.5t97 -40.5t98 40.5t41 100.5t-41 102t-98 42t-97 -42t-40 -102z" />
<glyph unicode="&#xb1;" d="M133 0v199h807v-199h-807zM133 532v199h303v303h199v-303h305v-199h-305v-280h-199v280h-303z" />
<glyph unicode="&#xb2;" horiz-adv-x="776" d="M74 684q10 70 63 137.5t135 114.5l82 47q109 63 109 139q0 48 -37 75.5t-113 27.5q-104 0 -200 -29v184q118 31 243 31q163 0 243.5 -69.5t80.5 -192.5q0 -87 -53 -163.5t-146 -123.5l-59 -31q-112 -57 -139 -137h422v-164h-619z" />
<glyph unicode="&#xb3;" horiz-adv-x="776" d="M86 518v166h131q262 0 262 127q0 52 -34 87t-93 44q-48 -28 -87 -43t-95 -25l-35 132q99 28 201 89t164 136h-389v172h553l20 -191q-46 -54 -94 -90t-121 -71v-7q107 -18 163 -75t56 -135q0 -138 -123.5 -227t-345.5 -89h-133z" />
<glyph unicode="&#xb4;" horiz-adv-x="858" d="M377 1128l145 297h264l-223 -297h-186z" />
<glyph unicode="&#xb5;" horiz-adv-x="1130" d="M139 -82v1092l252 10v-614q0 -103 38 -148t128 -45q89 0 182 41v756l250 10v-744q0 -71 51 -71q30 0 72 22v-213q-73 -26 -178 -26q-60 0 -111 29.5t-71 76.5q-97 -114 -258 -114q-67 0 -113 22v-65q0 -179 61 -328h-247q-56 131 -56 309z" />
<glyph unicode="&#xb6;" horiz-adv-x="1511" d="M78 780q0 264 160 416t446 152q37 0 93 -2.5t83 -2.5h502v-1880h-250v1692h-184v-1692h-180v746q-71 -23 -179 -23t-195.5 34t-154.5 104t-104 186t-37 270z" />
<glyph unicode="&#xb7;" horiz-adv-x="530" d="M98 604q0 79 43 129.5t123 50.5t124 -46.5t44 -133.5q0 -77 -43 -125.5t-123 -48.5t-124 44.5t-44 129.5z" />
<glyph unicode="&#xb8;" horiz-adv-x="1576" d="M205 -258h98q77 0 105 11.5t28 33.5q0 20 -23.5 32t-88.5 19l-33 4v107l170 -12q86 -6 124 -35.5t38 -89.5q0 -91 -84 -147t-238 -56h-96v133z" />
<glyph unicode="&#xb9;" horiz-adv-x="776" d="M133 1202v154q158 47 318 47h102v-873h-211v689q-110 0 -209 -17z" />
<glyph unicode="&#xba;" horiz-adv-x="815" d="M55 991q0 159 106 261t257 102q155 0 248.5 -85.5t93.5 -244.5q0 -161 -106 -261.5t-259 -100.5q-154 0 -247 85.5t-93 243.5zM264 995q0 -155 142 -155q65 0 105 48.5t40 129.5t-37.5 120.5t-105.5 39.5q-65 0 -104.5 -50t-39.5 -133z" />
<glyph unicode="&#xbb;" horiz-adv-x="1198" d="M104 76l312 428l-312 448h244l332 -438l-332 -438h-244zM522 76l312 428l-312 448h244l332 -438l-332 -438h-244z" />
<glyph unicode="&#xbc;" horiz-adv-x="1683" d="M133 1202v154q158 47 318 47h102v-873h-211v689q-110 0 -209 -17zM264 -217l938 1622l158 -92l-938 -1622zM846 -4q80 334 391 569h231v-545h111v-170h-111v-157h-211v157h-370zM1020 20h242v361h-2q-92 -75 -148.5 -159.5t-91.5 -201.5z" />
<glyph unicode="&#xbd;" horiz-adv-x="1683" d="M133 1202v154q158 47 318 47h102v-873h-211v689q-110 0 -209 -17zM264 -217l938 1622l158 -92l-938 -1622zM956 -154q10 70 63.5 137.5t135.5 114.5l82 47q109 63 109 140q0 102 -150 102q-105 0 -201 -29v185q114 30 244 30q163 0 243.5 -69.5t80.5 -192.5 q0 -87 -53 -163t-146 -123l-59 -31q-113 -58 -140 -137h422v-164h-618z" />
<glyph unicode="&#xbe;" horiz-adv-x="1683" d="M86 518v166h131q262 0 262 127q0 52 -34 87t-93 44q-48 -28 -87 -43t-95 -25l-35 132q99 28 201 89t164 136h-389v172h553l20 -191q-46 -54 -94 -90t-121 -71v-7q107 -18 163 -75t56 -135q0 -138 -123.5 -227t-345.5 -89h-133zM264 -217l938 1622l158 -92l-938 -1622z M846 -4q80 334 391 569h231v-545h111v-170h-111v-157h-211v157h-370zM1020 20h242v361h-2q-92 -75 -148.5 -159.5t-91.5 -201.5z" />
<glyph unicode="&#xbf;" horiz-adv-x="942" d="M102 -31q0 123 49.5 196t174.5 140l100 51q84 44 84 111q0 52 -31 115l205 10q66 -66 66 -156q0 -71 -36 -124.5t-120 -102.5l-107 -62q-64 -35 -89 -68t-25 -79q0 -48 49.5 -79.5t140.5 -31.5q137 0 289 58v-223q-172 -66 -356 -66q-177 0 -285.5 85.5t-108.5 225.5z M410 852q0 76 42.5 125t120.5 49q82 0 125 -44.5t43 -129.5q0 -79 -42 -129.5t-121 -50.5q-82 0 -125 46t-43 134z" />
<glyph unicode="&#xc0;" horiz-adv-x="1232" d="M23 0l393 1343h401l391 -1343h-307l-74 289h-454l-74 -289h-276zM328 1774h262l147 -297h-186zM426 502h346l-166 620h-14z" />
<glyph unicode="&#xc1;" horiz-adv-x="1232" d="M23 0l393 1343h401l391 -1343h-307l-74 289h-454l-74 -289h-276zM426 502h346l-166 620h-14zM502 1477l145 297h264l-223 -297h-186z" />
<glyph unicode="&#xc2;" horiz-adv-x="1232" d="M23 0l393 1343h401l391 -1343h-307l-74 289h-454l-74 -289h-276zM285 1477l229 297h221l211 -297h-217l-113 159h-12l-115 -159h-204zM426 502h346l-166 620h-14z" />
<glyph unicode="&#xc3;" horiz-adv-x="1232" d="M23 0l393 1343h401l391 -1343h-307l-74 289h-454l-74 -289h-276zM295 1651q38 56 90 89.5t109 33.5q45 0 98.5 -28t102 -56.5t81.5 -28.5q67 0 119 63l43 -147q-69 -119 -186 -119q-41 0 -95.5 28t-105.5 56.5t-82 28.5q-75 0 -131 -68zM426 502h346l-166 620h-14z" />
<glyph unicode="&#xc4;" horiz-adv-x="1232" d="M23 0l393 1343h401l391 -1343h-307l-74 289h-454l-74 -289h-276zM305 1597q0 60 32 98t91 38q62 0 93.5 -36t31.5 -100q0 -57 -32.5 -95t-92.5 -38q-61 0 -92 34.5t-31 98.5zM426 502h346l-166 620h-14zM680 1597q0 60 32 98t91 38q62 0 93.5 -36t31.5 -100 q0 -57 -32.5 -95t-92.5 -38q-61 0 -92 34.5t-31 98.5z" />
<glyph unicode="&#xc5;" horiz-adv-x="1232" d="M23 0l393 1343h401l391 -1343h-307l-74 289h-454l-74 -289h-276zM426 502h346l-166 620h-14zM428 1640q0 77 55.5 131t132.5 54q78 0 132.5 -53.5t54.5 -131.5q0 -77 -54.5 -132.5t-132.5 -55.5q-76 0 -132 56t-56 132zM543 1640q0 -33 20.5 -55t52.5 -22q28 0 50 22.5 t22 54.5q0 29 -22 52.5t-50 23.5q-31 0 -52 -23t-21 -53z" />
<glyph unicode="&#xc6;" horiz-adv-x="1718" d="M8 0l721 1343h870v-217h-450v-327h416v-217h-416v-365h457v-217h-723v289h-434l-150 -289h-291zM557 502h328v641h-13z" />
<glyph unicode="&#xc7;" horiz-adv-x="1093" d="M96 631q0 177 54.5 317.5t150 229t221 134.5t271.5 46q126 0 264 -27l-19 -225q-116 20 -254 20q-86 0 -159 -30t-128.5 -87t-87.5 -148t-32 -206q0 -110 33 -197.5t89.5 -140.5t126.5 -80.5t148 -27.5q135 0 285 27v-218q-88 -20 -142.5 -26t-156.5 -6q-143 0 -263 40.5 t-210 118.5t-140.5 202.5t-50.5 283.5zM467 -252h117q81 0 109 10.5t28 34.5q0 17 -20 26.5t-83 16.5l-63 8v113l168 -14q195 -15 195 -131q0 -90 -90.5 -146.5t-245.5 -56.5h-115v139z" />
<glyph unicode="&#xc8;" horiz-adv-x="1003" d="M170 0v1343h717v-217h-451v-327h416v-217h-416v-365h457v-217h-723zM248 1774h262l147 -297h-186z" />
<glyph unicode="&#xc9;" horiz-adv-x="1003" d="M170 0v1343h717v-217h-451v-327h416v-217h-416v-365h457v-217h-723zM422 1477l145 297h264l-223 -297h-186z" />
<glyph unicode="&#xca;" horiz-adv-x="1003" d="M170 0v1343h717v-217h-451v-327h416v-217h-416v-365h457v-217h-723zM205 1477l229 297h221l211 -297h-217l-112 159h-13l-114 -159h-205z" />
<glyph unicode="&#xcb;" horiz-adv-x="1003" d="M170 0v1343h717v-217h-451v-327h416v-217h-416v-365h457v-217h-723zM225 1597q0 60 32 98t91 38q62 0 93.5 -36t31.5 -100q0 -57 -32.5 -95t-92.5 -38q-61 0 -92 34.5t-31 98.5zM600 1597q0 60 32 98t91 38q62 0 93.5 -36t31.5 -100q0 -57 -32.5 -95t-92.5 -38 q-61 0 -92 34.5t-31 98.5z" />
<glyph unicode="&#xcc;" horiz-adv-x="604" d="M16 1774h263l147 -297h-186zM170 0v1343h266v-1343h-266z" />
<glyph unicode="&#xcd;" horiz-adv-x="604" d="M170 0v1343h266v-1343h-266zM188 1477l146 297h264l-223 -297h-187z" />
<glyph unicode="&#xce;" horiz-adv-x="604" d="M-27 1477l230 297h221l211 -297h-217l-113 159h-12l-115 -159h-205zM170 0v1343h266v-1343h-266z" />
<glyph unicode="&#xcf;" horiz-adv-x="604" d="M-6 1597q0 60 32 98t91 38q62 0 93.5 -36t31.5 -100q0 -57 -32.5 -95t-92.5 -38q-61 0 -92 34.5t-31 98.5zM170 0v1343h266v-1343h-266zM369 1597q0 60 32 98t91 38q62 0 93 -35.5t31 -100.5q0 -57 -32 -95t-92 -38q-61 0 -92 34.5t-31 98.5z" />
<glyph unicode="&#xd0;" horiz-adv-x="1372" d="M63 569v234h156v540h391q346 0 530.5 -165t184.5 -467q0 -357 -190 -534t-537 -177h-379v569h-156zM485 217h125q207 0 320.5 116.5t113.5 364.5q0 207 -119 317.5t-331 110.5h-109v-323h240v-234h-240v-352z" />
<glyph unicode="&#xd1;" horiz-adv-x="1372" d="M170 0v1343h405l381 -1085h13v1085h235v-1343h-407l-379 1085h-12v-1085h-236zM369 1651q38 56 89.5 89.5t108.5 33.5q36 0 78 -17.5t73.5 -39t68.5 -39t63 -17.5q67 0 119 63l43 -147q-69 -119 -187 -119q-32 0 -73.5 17.5t-75 39t-71 39t-62.5 17.5q-75 0 -131 -68z " />
<glyph unicode="&#xd2;" horiz-adv-x="1480" d="M96 659q0 167 53 302.5t144.5 222t210 132.5t252.5 46q133 0 245.5 -41.5t198.5 -123t135 -213t49 -300.5q0 -167 -52.5 -302.5t-142.5 -221.5t-208 -132t-252 -46t-247.5 41.5t-200.5 122.5t-136 212.5t-49 300.5zM377 682q0 -122 28 -213t79 -144.5t115 -79.5t142 -26 q71 0 134 26t115.5 77.5t83 139t30.5 200.5q0 122 -28 213.5t-78.5 145t-114.5 79.5t-142 26q-72 0 -135.5 -26t-115.5 -78t-82.5 -139.5t-30.5 -200.5zM453 1774h262l147 -297h-186z" />
<glyph unicode="&#xd3;" horiz-adv-x="1480" d="M96 659q0 167 53 302.5t144.5 222t210 132.5t252.5 46q133 0 245.5 -41.5t198.5 -123t135 -213t49 -300.5q0 -167 -52.5 -302.5t-142.5 -221.5t-208 -132t-252 -46t-247.5 41.5t-200.5 122.5t-136 212.5t-49 300.5zM377 682q0 -122 28 -213t79 -144.5t115 -79.5t142 -26 q71 0 134 26t115.5 77.5t83 139t30.5 200.5q0 122 -28 213.5t-78.5 145t-114.5 79.5t-142 26q-72 0 -135.5 -26t-115.5 -78t-82.5 -139.5t-30.5 -200.5zM627 1477l145 297h264l-223 -297h-186z" />
<glyph unicode="&#xd4;" horiz-adv-x="1480" d="M96 659q0 167 53 302.5t144.5 222t210 132.5t252.5 46q133 0 245.5 -41.5t198.5 -123t135 -213t49 -300.5q0 -167 -52.5 -302.5t-142.5 -221.5t-208 -132t-252 -46t-247.5 41.5t-200.5 122.5t-136 212.5t-49 300.5zM377 682q0 -122 28 -213t79 -144.5t115 -79.5t142 -26 q71 0 134 26t115.5 77.5t83 139t30.5 200.5q0 122 -28 213.5t-78.5 145t-114.5 79.5t-142 26q-72 0 -135.5 -26t-115.5 -78t-82.5 -139.5t-30.5 -200.5zM410 1477l229 297h221l211 -297h-217l-113 159h-12l-115 -159h-204z" />
<glyph unicode="&#xd5;" horiz-adv-x="1480" d="M96 659q0 167 53 302.5t144.5 222t210 132.5t252.5 46q133 0 245.5 -41.5t198.5 -123t135 -213t49 -300.5q0 -167 -52.5 -302.5t-142.5 -221.5t-208 -132t-252 -46t-247.5 41.5t-200.5 122.5t-136 212.5t-49 300.5zM377 682q0 -122 28 -213t79 -144.5t115 -79.5t142 -26 q71 0 134 26t115.5 77.5t83 139t30.5 200.5q0 122 -28 213.5t-78.5 145t-114.5 79.5t-142 26q-72 0 -135.5 -26t-115.5 -78t-82.5 -139.5t-30.5 -200.5zM422 1651q38 56 90 89.5t109 33.5q45 0 98.5 -28t102 -56.5t81.5 -28.5q67 0 119 63l43 -147q-69 -119 -186 -119 q-51 0 -149 56.5t-134 56.5q-75 0 -131 -68z" />
<glyph unicode="&#xd6;" horiz-adv-x="1480" d="M96 659q0 167 53 302.5t144.5 222t210 132.5t252.5 46q133 0 245.5 -41.5t198.5 -123t135 -213t49 -300.5q0 -167 -52.5 -302.5t-142.5 -221.5t-208 -132t-252 -46t-247.5 41.5t-200.5 122.5t-136 212.5t-49 300.5zM377 682q0 -122 28 -213t79 -144.5t115 -79.5t142 -26 q71 0 134 26t115.5 77.5t83 139t30.5 200.5q0 122 -28 213.5t-78.5 145t-114.5 79.5t-142 26q-72 0 -135.5 -26t-115.5 -78t-82.5 -139.5t-30.5 -200.5zM430 1597q0 60 32 98t91 38q62 0 93.5 -36t31.5 -100q0 -57 -32.5 -95t-92.5 -38q-61 0 -92 34.5t-31 98.5zM805 1597 q0 60 32 98t91 38q62 0 93.5 -36t31.5 -100q0 -57 -32.5 -95t-92.5 -38q-61 0 -92 34.5t-31 98.5z" />
<glyph unicode="&#xd7;" d="M164 375l231 231l-231 232l141 139l230 -232l233 234l139 -141l-231 -232l231 -231l-139 -142l-233 234l-230 -231z" />
<glyph unicode="&#xd8;" horiz-adv-x="1480" d="M96 659q0 167 53 302.5t144.5 222t210 132.5t252.5 46q147 0 274 -53l70 118l114 -63l-67 -119q237 -181 237 -561q0 -167 -52.5 -302.5t-142.5 -221.5t-208 -132t-252 -46q-153 0 -280 53l-70 -119l-115 64l68 122q-111 83 -173.5 223.5t-62.5 333.5zM371 682 q0 -222 96 -350l442 766q-71 35 -168 35q-72 0 -136.5 -27t-117.5 -80t-84.5 -142t-31.5 -202zM571 248q71 -35 170 -35q71 0 135 27t117.5 79.5t85 141t31.5 201.5q0 224 -96 352z" />
<glyph unicode="&#xd9;" horiz-adv-x="1335" d="M154 465v878h266v-845q0 -279 256 -279q124 0 192 71t68 204v849h246v-858q0 -226 -139.5 -364.5t-378.5 -138.5q-255 0 -382.5 123.5t-127.5 359.5zM381 1774h262l148 -297h-187z" />
<glyph unicode="&#xda;" horiz-adv-x="1335" d="M154 465v878h266v-845q0 -279 256 -279q124 0 192 71t68 204v849h246v-858q0 -226 -139.5 -364.5t-378.5 -138.5q-255 0 -382.5 123.5t-127.5 359.5zM555 1477l145 297h265l-224 -297h-186z" />
<glyph unicode="&#xdb;" horiz-adv-x="1335" d="M154 465v878h266v-845q0 -279 256 -279q124 0 192 71t68 204v849h246v-858q0 -226 -139.5 -364.5t-378.5 -138.5q-255 0 -382.5 123.5t-127.5 359.5zM338 1477l229 297h221l211 -297h-217l-112 159h-13l-114 -159h-205z" />
<glyph unicode="&#xdc;" horiz-adv-x="1335" d="M154 465v878h266v-845q0 -279 256 -279q124 0 192 71t68 204v849h246v-858q0 -226 -139.5 -364.5t-378.5 -138.5q-255 0 -382.5 123.5t-127.5 359.5zM358 1597q0 60 32 98t91 38q62 0 93.5 -36t31.5 -100q0 -57 -32.5 -95t-92.5 -38q-61 0 -92 34.5t-31 98.5zM733 1597 q0 60 32 98t91 38q62 0 93.5 -36t31.5 -100q0 -57 -32.5 -95t-92.5 -38q-61 0 -92 34.5t-31 98.5z" />
<glyph unicode="&#xdd;" horiz-adv-x="1128" d="M16 1343h299l267 -565h8l260 565h262l-414 -806v-537h-266v537zM451 1477l145 297h264l-223 -297h-186z" />
<glyph unicode="&#xde;" horiz-adv-x="1134" d="M170 0v1343h266v-208h170q223 0 347 -113.5t124 -304.5q0 -212 -135.5 -337.5t-359.5 -125.5q-83 0 -146 8v-262h-266zM432 473q49 -8 115 -8q117 0 184.5 61t67.5 172t-59 168.5t-175 57.5h-133v-451z" />
<glyph unicode="&#xdf;" horiz-adv-x="1290" d="M176 0v1069q0 170 109 268.5t325 98.5q217 0 334 -83.5t117 -238.5q0 -59 -23 -107.5t-56.5 -80t-66.5 -59t-56 -57t-23 -60.5q0 -46 79 -93l97 -53q117 -64 163 -124t46 -146q0 -152 -113.5 -249t-278.5 -97q-155 0 -268 26v217q133 -34 264 -34q77 0 115.5 24t38.5 64 q0 55 -86 104l-107 62q-110 63 -147 116t-37 140q0 56 23.5 104.5t57 83t66.5 66t56.5 67t23.5 72.5q0 139 -221 139q-88 0 -135 -43t-47 -113v-1083h-250z" />
<glyph unicode="&#xe0;" horiz-adv-x="1030" d="M63 272q0 151 115 237.5t348 86.5q27 0 73.5 -1t64.5 -1v45q0 82 -52.5 123t-173.5 41q-136 0 -286 -62l-33 211q182 76 366 76q422 0 422 -364v-664h-235v63q-118 -75 -285 -75q-155 0 -239.5 77t-84.5 207zM209 1425h262l147 -297h-186zM319 293q0 -51 38.5 -80 t105.5 -29q105 0 201 45v187q-78 4 -129 4q-216 0 -216 -127z" />
<glyph unicode="&#xe1;" horiz-adv-x="1030" d="M63 272q0 151 115 237.5t348 86.5q27 0 73.5 -1t64.5 -1v45q0 82 -52.5 123t-173.5 41q-136 0 -286 -62l-33 211q182 76 366 76q422 0 422 -364v-664h-235v63q-118 -75 -285 -75q-155 0 -239.5 77t-84.5 207zM319 293q0 -51 38.5 -80t105.5 -29q105 0 201 45v187 q-78 4 -129 4q-216 0 -216 -127zM383 1128l145 297h265l-224 -297h-186z" />
<glyph unicode="&#xe2;" horiz-adv-x="1030" d="M63 272q0 151 115 237.5t348 86.5q27 0 73.5 -1t64.5 -1v45q0 82 -52.5 123t-173.5 41q-136 0 -286 -62l-33 211q182 76 366 76q422 0 422 -364v-664h-235v63q-118 -75 -285 -75q-155 0 -239.5 77t-84.5 207zM166 1128l229 297h221l211 -297h-217l-112 160h-13l-114 -160 h-205zM319 293q0 -51 38.5 -80t105.5 -29q105 0 201 45v187q-78 4 -129 4q-216 0 -216 -127z" />
<glyph unicode="&#xe3;" horiz-adv-x="1030" d="M63 272q0 151 115 237.5t348 86.5q27 0 73.5 -1t64.5 -1v45q0 82 -52.5 123t-173.5 41q-136 0 -286 -62l-33 211q182 76 366 76q422 0 422 -364v-664h-235v63q-118 -75 -285 -75q-155 0 -239.5 77t-84.5 207zM188 1300q38 56 90 88.5t109 32.5q45 0 93.5 -29.5t92 -59 t76.5 -29.5q67 0 119 69l43 -145q-68 -117 -186 -117q-41 0 -90.5 30t-95.5 59.5t-77 29.5q-75 0 -131 -74zM319 293q0 -51 38.5 -80t105.5 -29q105 0 201 45v187q-78 4 -129 4q-216 0 -216 -127z" />
<glyph unicode="&#xe4;" horiz-adv-x="1030" d="M63 272q0 151 115 237.5t348 86.5q27 0 73.5 -1t64.5 -1v45q0 82 -52.5 123t-173.5 41q-136 0 -286 -62l-33 211q182 76 366 76q422 0 422 -364v-664h-235v63q-118 -75 -285 -75q-155 0 -239.5 77t-84.5 207zM199 1286q0 60 32 97.5t91 37.5q62 0 93 -35.5t31 -99.5 q0 -57 -32 -95t-92 -38q-61 0 -92 34.5t-31 98.5zM319 293q0 -51 38.5 -80t105.5 -29q105 0 201 45v187q-78 4 -129 4q-216 0 -216 -127zM561 1286q0 60 32 97.5t91 37.5q62 0 93.5 -35.5t31.5 -99.5q0 -57 -32.5 -95t-92.5 -38q-61 0 -92 34.5t-31 98.5z" />
<glyph unicode="&#xe5;" horiz-adv-x="1030" d="M63 272q0 151 115 237.5t348 86.5q27 0 73.5 -1t64.5 -1v45q0 82 -52.5 123t-173.5 41q-136 0 -286 -62l-33 211q182 76 366 76q422 0 422 -364v-664h-235v63q-118 -75 -285 -75q-155 0 -239.5 77t-84.5 207zM309 1305q0 77 56 130.5t133 53.5q78 0 132 -53t54 -131 q0 -77 -54.5 -133t-131.5 -56q-76 0 -132.5 56t-56.5 133zM319 293q0 -51 38.5 -80t105.5 -29q105 0 201 45v187q-78 4 -129 4q-216 0 -216 -127zM424 1305q0 -33 21 -55.5t53 -22.5q28 0 49.5 23t21.5 55q0 29 -21.5 52t-49.5 23q-31 0 -52.5 -22.5t-21.5 -52.5z" />
<glyph unicode="&#xe6;" horiz-adv-x="1607" d="M63 272q0 152 114.5 238t348.5 86q28 0 74 -1t64 -1v43q0 84 -52.5 125t-173.5 41q-136 0 -286 -62l-33 211q179 76 366 76q222 0 328 -106q127 112 309 112q188 0 298 -111t110 -305q0 -124 -8 -184h-625q23 -121 99 -178t212 -57q146 0 291 45v-205q-87 -27 -156.5 -39 t-164.5 -12q-250 0 -387 137q-159 -137 -408 -137q-151 0 -235.5 77t-84.5 207zM319 289q0 -46 38 -75.5t102 -29.5q133 0 248 68q-40 76 -43 164q-70 4 -129 4q-216 0 -216 -131zM899 614h389q0 99 -50.5 163.5t-133.5 64.5q-80 0 -136 -59t-69 -169z" />
<glyph unicode="&#xe7;" horiz-adv-x="847" d="M82 489q0 124 40 227.5t109.5 172t161 106t195.5 37.5q117 0 213 -24l-21 -228q-93 19 -176 19q-122 0 -194 -79t-72 -220q0 -149 73 -222t195 -73q90 0 191 26v-215q-95 -28 -215 -28q-235 0 -367.5 125.5t-132.5 375.5zM279 -258h98q77 0 105 11.5t28 33.5q0 20 -24 32 t-89 19l-32 4v107l170 -12q86 -6 123.5 -35.5t37.5 -89.5q0 -91 -83.5 -147t-237.5 -56h-96v133z" />
<glyph unicode="&#xe8;" horiz-adv-x="1032" d="M82 506q0 250 131.5 389t333.5 139q188 0 297.5 -111t109.5 -305q0 -124 -8 -184h-622q23 -121 97.5 -178t211.5 -57q149 0 291 45v-205q-91 -27 -159.5 -39t-164.5 -12q-244 0 -381 130t-137 388zM264 1425h262l148 -297h-187zM324 614h389q0 101 -50.5 164.5 t-134.5 63.5q-80 0 -135.5 -60t-68.5 -168z" />
<glyph unicode="&#xe9;" horiz-adv-x="1032" d="M82 506q0 250 131.5 389t333.5 139q188 0 297.5 -111t109.5 -305q0 -124 -8 -184h-622q23 -121 97.5 -178t211.5 -57q149 0 291 45v-205q-91 -27 -159.5 -39t-164.5 -12q-244 0 -381 130t-137 388zM324 614h389q0 101 -50.5 164.5t-134.5 63.5q-80 0 -135.5 -60 t-68.5 -168zM436 1128l146 297h264l-223 -297h-187z" />
<glyph unicode="&#xea;" horiz-adv-x="1032" d="M82 506q0 250 131.5 389t333.5 139q188 0 297.5 -111t109.5 -305q0 -124 -8 -184h-622q23 -121 97.5 -178t211.5 -57q149 0 291 45v-205q-91 -27 -159.5 -39t-164.5 -12q-244 0 -381 130t-137 388zM221 1128l230 297h221l211 -297h-217l-113 160h-12l-115 -160h-205z M324 614h389q0 101 -50.5 164.5t-134.5 63.5q-80 0 -135.5 -60t-68.5 -168z" />
<glyph unicode="&#xeb;" horiz-adv-x="1032" d="M82 506q0 250 131.5 389t333.5 139q188 0 297.5 -111t109.5 -305q0 -124 -8 -184h-622q23 -121 97.5 -178t211.5 -57q149 0 291 45v-205q-91 -27 -159.5 -39t-164.5 -12q-244 0 -381 130t-137 388zM246 1286q0 60 32 97.5t91 37.5q62 0 93.5 -35.5t31.5 -99.5 q0 -57 -32.5 -95t-92.5 -38q-61 0 -92 34.5t-31 98.5zM324 614h389q0 101 -50.5 164.5t-134.5 63.5q-80 0 -135.5 -60t-68.5 -168zM608 1286q0 60 32 97.5t91 37.5q62 0 93.5 -35.5t31.5 -99.5q0 -57 -32.5 -95t-92.5 -38q-61 0 -92 34.5t-31 98.5z" />
<glyph unicode="&#xec;" horiz-adv-x="530" d="M-23 1425h263l147 -297h-186zM139 0v1010l252 10v-1020h-252z" />
<glyph unicode="&#xed;" horiz-adv-x="530" d="M139 0v1010l252 10v-1020h-252zM150 1128l145 297h264l-223 -297h-186z" />
<glyph unicode="&#xee;" horiz-adv-x="530" d="M-66 1128l230 297h221l211 -297h-217l-113 160h-12l-115 -160h-205zM139 0v1010l252 10v-1020h-252z" />
<glyph unicode="&#xef;" horiz-adv-x="530" d="M-39 1286q0 60 32 97.5t91 37.5q62 0 93.5 -35.5t31.5 -99.5q0 -57 -32.5 -95t-92.5 -38q-61 0 -92 34.5t-31 98.5zM139 0v1010l252 10v-1020h-252zM324 1286q0 60 31.5 97.5t90.5 37.5q62 0 93.5 -35.5t31.5 -99.5q0 -57 -32.5 -95t-92.5 -38q-61 0 -91.5 34.5 t-30.5 98.5z" />
<glyph unicode="&#xf0;" horiz-adv-x="1116" d="M82 487q0 123 39 226.5t105.5 173.5t156.5 108.5t192 38.5q123 0 189 -57l10 6q-9 49 -40 102t-68 84l-80 -88l-101 97l47 53q-34 10 -98 10q-116 0 -248 -22v192q147 25 287 25q128 0 211 -33l96 102l107 -106l-68 -74q104 -88 155.5 -245.5t51.5 -424.5 q0 -336 -131.5 -504.5t-345.5 -168.5q-102 0 -187 31.5t-147.5 93t-97.5 158.5t-35 222zM338 496q0 -149 62.5 -221t164.5 -72q92 0 160 90t68 221q0 144 -15 262q-50 25 -97 35t-118 10q-96 0 -160.5 -90t-64.5 -235z" />
<glyph unicode="&#xf1;" horiz-adv-x="1126" d="M139 0v1010l244 10v-76q125 84 268 84q166 0 259.5 -93.5t93.5 -268.5v-666h-252v612q0 97 -44 141t-133 44q-94 0 -184 -33v-764h-252zM262 1300q38 56 90 88.5t109 32.5q45 0 93.5 -29.5t92 -59t76.5 -29.5q67 0 119 69l43 -145q-68 -117 -187 -117q-41 0 -90.5 30 t-95 59.5t-76.5 29.5q-75 0 -131 -74z" />
<glyph unicode="&#xf2;" horiz-adv-x="1159" d="M82 487q0 122 41.5 226t111.5 173.5t163 108.5t196 39q219 0 351 -131.5t132 -376.5q0 -122 -41.5 -225.5t-112 -172.5t-163 -107.5t-195.5 -38.5q-219 0 -351 130.5t-132 374.5zM293 1425h262l147 -297h-186zM338 496q0 -145 65 -219t177 -74q104 0 172.5 83.5 t68.5 233.5q0 144 -65 218.5t-176 74.5q-105 0 -173.5 -83t-68.5 -234z" />
<glyph unicode="&#xf3;" horiz-adv-x="1159" d="M82 487q0 122 41.5 226t111.5 173.5t163 108.5t196 39q219 0 351 -131.5t132 -376.5q0 -122 -41.5 -225.5t-112 -172.5t-163 -107.5t-195.5 -38.5q-219 0 -351 130.5t-132 374.5zM338 496q0 -145 65 -219t177 -74q104 0 172.5 83.5t68.5 233.5q0 144 -65 218.5t-176 74.5 q-105 0 -173.5 -83t-68.5 -234zM467 1128l145 297h265l-224 -297h-186z" />
<glyph unicode="&#xf4;" horiz-adv-x="1159" d="M82 487q0 122 41.5 226t111.5 173.5t163 108.5t196 39q219 0 351 -131.5t132 -376.5q0 -122 -41.5 -225.5t-112 -172.5t-163 -107.5t-195.5 -38.5q-219 0 -351 130.5t-132 374.5zM250 1128l229 297h221l211 -297h-217l-112 160h-13l-114 -160h-205zM338 496 q0 -145 65 -219t177 -74q104 0 172.5 83.5t68.5 233.5q0 144 -65 218.5t-176 74.5q-105 0 -173.5 -83t-68.5 -234z" />
<glyph unicode="&#xf5;" horiz-adv-x="1159" d="M82 487q0 122 41.5 226t111.5 173.5t163 108.5t196 39q219 0 351 -131.5t132 -376.5q0 -122 -41.5 -225.5t-112 -172.5t-163 -107.5t-195.5 -38.5q-219 0 -351 130.5t-132 374.5zM270 1300q38 56 90 88.5t109 32.5q45 0 93.5 -29.5t92 -59t76.5 -29.5q67 0 119 69 l43 -145q-68 -117 -186 -117q-41 0 -90.5 30t-95.5 59.5t-77 29.5q-75 0 -131 -74zM338 496q0 -145 65 -219t177 -74q104 0 172.5 83.5t68.5 233.5q0 144 -65 218.5t-176 74.5q-105 0 -173.5 -83t-68.5 -234z" />
<glyph unicode="&#xf6;" horiz-adv-x="1159" d="M82 487q0 122 41.5 226t111.5 173.5t163 108.5t196 39q219 0 351 -131.5t132 -376.5q0 -122 -41.5 -225.5t-112 -172.5t-163 -107.5t-195.5 -38.5q-219 0 -351 130.5t-132 374.5zM276 1286q0 60 32 97.5t91 37.5q62 0 93.5 -35.5t31.5 -99.5q0 -57 -32.5 -95t-92.5 -38 q-61 0 -92 34.5t-31 98.5zM338 496q0 -145 65 -219t177 -74q104 0 172.5 83.5t68.5 233.5q0 144 -65 218.5t-176 74.5q-105 0 -173.5 -83t-68.5 -234zM639 1286q0 60 32 97.5t91 37.5q62 0 93.5 -35.5t31.5 -99.5q0 -57 -32.5 -95t-92.5 -38q-61 0 -92 34.5t-31 98.5z" />
<glyph unicode="&#xf7;" d="M133 508v199h807v-199h-807zM424 291q0 54 30.5 83t82.5 29t82 -29t30 -83q0 -55 -30 -84t-82 -29t-82.5 29.5t-30.5 83.5zM424 924q0 54 30.5 83t82.5 29t82 -29t30 -83q0 -55 -30 -84t-82 -29t-82.5 29.5t-30.5 83.5z" />
<glyph unicode="&#xf8;" horiz-adv-x="1159" d="M82 487q0 122 41.5 226t111.5 173.5t163 108.5t196 39q113 0 203 -35l67 115l103 -59l-66 -113q176 -132 176 -416q0 -122 -41.5 -225.5t-112 -172.5t-163 -107.5t-195.5 -38.5q-104 0 -198 32l-64 -108l-102 59l59 105q-178 129 -178 417zM330 496q0 -136 57 -217 l301 522q-52 20 -108 20q-105 0 -177.5 -87t-72.5 -238zM477 213q44 -18 103 -18q104 0 176.5 87.5t72.5 237.5q0 127 -55 209z" />
<glyph unicode="&#xf9;" horiz-adv-x="1112" d="M123 356v654l250 10v-614q0 -104 39 -148.5t129 -44.5q89 0 182 41v756l250 10v-1020h-242v70q-76 -48 -130.5 -69t-125.5 -21q-176 0 -264 96.5t-88 279.5zM260 1425h262l148 -297h-187z" />
<glyph unicode="&#xfa;" horiz-adv-x="1112" d="M123 356v654l250 10v-614q0 -104 39 -148.5t129 -44.5q89 0 182 41v756l250 10v-1020h-242v70q-76 -48 -130.5 -69t-125.5 -21q-176 0 -264 96.5t-88 279.5zM434 1128l146 297h264l-223 -297h-187z" />
<glyph unicode="&#xfb;" horiz-adv-x="1112" d="M123 356v654l250 10v-614q0 -104 39 -148.5t129 -44.5q89 0 182 41v756l250 10v-1020h-242v70q-76 -48 -130.5 -69t-125.5 -21q-176 0 -264 96.5t-88 279.5zM217 1128l229 297h222l211 -297h-217l-113 160h-12l-115 -160h-205z" />
<glyph unicode="&#xfc;" horiz-adv-x="1112" d="M123 356v654l250 10v-614q0 -104 39 -148.5t129 -44.5q89 0 182 41v756l250 10v-1020h-242v70q-76 -48 -130.5 -69t-125.5 -21q-176 0 -264 96.5t-88 279.5zM244 1286q0 60 32 97.5t91 37.5q62 0 93.5 -35.5t31.5 -99.5q0 -57 -32.5 -95t-92.5 -38q-61 0 -92 34.5 t-31 98.5zM606 1286q0 60 32 97.5t91 37.5q62 0 93.5 -35.5t31.5 -99.5q0 -57 -32.5 -95t-92.5 -38q-61 0 -92 34.5t-31 98.5z" />
<glyph unicode="&#xfd;" horiz-adv-x="970" d="M16 1016h277l213 -793h8l188 793h254l-338 -1155q-79 -264 -387 -264q-78 0 -137 10v200q60 -8 129 -8q58 0 105.5 35t68.5 100l29 89h-98zM371 1128l145 297h264l-223 -297h-186z" />
<glyph unicode="&#xfe;" horiz-adv-x="1144" d="M139 -391v1810l252 13v-484q117 80 254 80q197 0 307.5 -123t110.5 -362q0 -264 -150.5 -409.5t-404.5 -145.5q-65 0 -117 14v-393h-252zM389 211q61 -10 115 -10q143 0 223 80.5t80 242.5q0 136 -63 204.5t-175 68.5q-93 0 -180 -33v-553z" />
<glyph unicode="&#xff;" horiz-adv-x="970" d="M16 1016h277l213 -793h8l188 793h254l-338 -1155q-79 -264 -387 -264q-78 0 -137 10v200q60 -8 129 -8q58 0 105.5 35t68.5 100l29 89h-98zM182 1286q0 60 32 97.5t91 37.5q62 0 93.5 -35.5t31.5 -99.5q0 -57 -32.5 -95t-92.5 -38q-61 0 -92 34.5t-31 98.5zM545 1286 q0 60 32 97.5t91 37.5q62 0 93.5 -35.5t31.5 -99.5q0 -57 -32.5 -95t-92.5 -38q-61 0 -92 34.5t-31 98.5z" />
<glyph unicode="&#x152;" horiz-adv-x="1871" d="M96 659q0 167 53 302.5t144.5 222t210 132.5t252.5 46q160 0 282 -72v53h715v-217h-450v-327h415v-217h-415v-365h456v-217h-723v68q-121 -86 -307 -86q-134 0 -247.5 41.5t-200.5 122.5t-136 212.5t-49 300.5zM377 682q0 -122 28 -213t79 -144.5t115 -79.5t142 -26 q188 0 295 146v618q-101 143 -295 143q-72 0 -135.5 -26t-115.5 -78t-82.5 -139.5t-30.5 -200.5z" />
<glyph unicode="&#x153;" horiz-adv-x="1781" d="M82 487q0 122 41.5 226t112 173.5t164 108.5t196.5 39q231 0 362 -147q132 147 338 147q189 0 298.5 -110t109.5 -306q0 -94 -8 -184h-623q23 -121 97.5 -178t211.5 -57q146 0 291 45v-205q-87 -27 -157 -39t-166 -12q-275 0 -410 159q-69 -78 -167 -121.5t-206 -43.5 q-220 0 -352.5 130.5t-132.5 374.5zM338 496q0 -145 65 -219t179 -74q106 0 174.5 83.5t68.5 233.5q0 143 -66 218t-177 75q-106 0 -175 -83t-69 -234zM1073 614h389q0 101 -50 164.5t-134 63.5q-80 0 -136 -60t-69 -168z" />
<glyph unicode="&#x178;" horiz-adv-x="1128" d="M16 1343h299l267 -565h8l260 565h262l-414 -806v-537h-266v537zM254 1597q0 60 32 98t91 38q62 0 93.5 -36t31.5 -100q0 -57 -32.5 -95t-92.5 -38q-61 0 -92 34.5t-31 98.5zM629 1597q0 60 32 98t91 38q62 0 93.5 -36t31.5 -100q0 -57 -32.5 -95t-92.5 -38 q-61 0 -92 34.5t-31 98.5z" />
<glyph unicode="&#x2c6;" horiz-adv-x="753" d="M43 1128l229 297h222l211 -297h-218l-112 160h-13l-114 -160h-205z" />
<glyph unicode="&#x2dc;" horiz-adv-x="798" d="M78 1300q38 56 89.5 88.5t108.5 32.5q36 0 74.5 -18.5t66.5 -40.5t62 -40.5t60 -18.5q66 0 118 69l43 -145q-68 -117 -186 -117q-41 0 -90.5 30t-95 59.5t-76.5 29.5q-75 0 -131 -74z" />
<glyph unicode="&#x2000;" horiz-adv-x="912" />
<glyph unicode="&#x2001;" horiz-adv-x="1825" />
<glyph unicode="&#x2002;" horiz-adv-x="912" />
<glyph unicode="&#x2003;" horiz-adv-x="1825" />
<glyph unicode="&#x2004;" horiz-adv-x="608" />
<glyph unicode="&#x2005;" horiz-adv-x="456" />
<glyph unicode="&#x2006;" horiz-adv-x="304" />
<glyph unicode="&#x2007;" horiz-adv-x="304" />
<glyph unicode="&#x2008;" horiz-adv-x="228" />
<glyph unicode="&#x2009;" horiz-adv-x="365" />
<glyph unicode="&#x200a;" horiz-adv-x="101" />
<glyph unicode="&#x2010;" horiz-adv-x="798" d="M135 473v229h529v-229h-529z" />
<glyph unicode="&#x2011;" horiz-adv-x="798" d="M135 473v229h529v-229h-529z" />
<glyph unicode="&#x2012;" horiz-adv-x="798" d="M135 473v229h529v-229h-529z" />
<glyph unicode="&#x2013;" horiz-adv-x="1024" d="M59 485v205h906v-205h-906z" />
<glyph unicode="&#x2014;" horiz-adv-x="2048" d="M59 485v205h1930v-205h-1930z" />
<glyph unicode="&#x2018;" horiz-adv-x="530" d="M98 1034q0 62 53 157t114 163.5t87 68.5h115l-115 -262q80 -43 80 -139q0 -70 -46 -119t-120 -49q-77 0 -122.5 45.5t-45.5 134.5z" />
<glyph unicode="&#x2019;" horiz-adv-x="530" d="M63 854l115 262q-80 43 -80 139q0 70 46 119t120 49q76 0 122 -45.5t46 -134.5q0 -62 -53 -157t-114 -163.5t-87 -68.5h-115z" />
<glyph unicode="&#x201a;" horiz-adv-x="530" d="M63 -225l115 262q-80 43 -80 139q0 70 46 119t120 49q76 0 122 -45.5t46 -134.5q0 -62 -53 -157t-114 -163.5t-87 -68.5h-115z" />
<glyph unicode="&#x201c;" horiz-adv-x="952" d="M98 1034q0 62 53 157t114 163.5t87 68.5h115l-115 -262q80 -43 80 -139q0 -70 -46 -119t-120 -49q-77 0 -122.5 45.5t-45.5 134.5zM520 1034q0 62 53 157t114 163.5t87 68.5h115l-115 -262q80 -43 80 -139q0 -70 -46 -119t-120 -49q-76 0 -122 45.5t-46 134.5z" />
<glyph unicode="&#x201d;" horiz-adv-x="952" d="M63 862l115 262q-36 18 -58 55t-22 85q0 70 46 118t120 48q76 0 122 -45t46 -134q0 -62 -53 -157t-114 -163.5t-87 -68.5h-115zM485 862l115 262q-36 18 -58 55t-22 85q0 70 46 118t120 48q77 0 122.5 -45t45.5 -134q0 -62 -53 -157t-114 -163.5t-87 -68.5h-115z" />
<glyph unicode="&#x201e;" horiz-adv-x="952" d="M63 -225l115 262q-80 43 -80 139q0 70 46 119t120 49q76 0 122 -45.5t46 -134.5q0 -62 -53 -157t-114 -163.5t-87 -68.5h-115zM485 -225l115 262q-80 43 -80 139q0 70 46 119t120 49q77 0 122.5 -45.5t45.5 -134.5q0 -62 -53 -157t-114 -163.5t-87 -68.5h-115z" />
<glyph unicode="&#x2022;" horiz-adv-x="569" d="M49 604q0 111 62 179.5t174 68.5q110 0 172.5 -64t62.5 -184q0 -106 -64 -174t-171 -68q-113 0 -174.5 63.5t-61.5 178.5z" />
<glyph unicode="&#x2026;" horiz-adv-x="1458" d="M98 164q0 79 43 129.5t123 50.5t124 -46.5t44 -133.5q0 -77 -43 -125.5t-123 -48.5t-124 44.5t-44 129.5zM563 164q0 79 43 129.5t123 50.5t124 -46.5t44 -133.5q0 -77 -43.5 -125.5t-122.5 -48.5q-80 0 -124 44.5t-44 129.5zM1028 164q0 79 42.5 129.5t121.5 50.5 q82 0 125 -46t43 -134q0 -77 -42.5 -125.5t-121.5 -48.5q-82 0 -125 44t-43 130z" />
<glyph unicode="&#x202f;" horiz-adv-x="365" />
<glyph unicode="&#x2039;" horiz-adv-x="780" d="M100 514l332 438h244l-311 -428l311 -448h-244z" />
<glyph unicode="&#x203a;" horiz-adv-x="780" d="M104 76l312 428l-312 448h244l332 -438l-332 -438h-244z" />
<glyph unicode="&#x205f;" horiz-adv-x="456" />
<glyph unicode="&#x20ac;" d="M49 422v162h111v41q0 75 4 108h-115v166h139q55 225 203 341t369 116q109 0 231 -25v-231q-150 26 -237 26q-218 0 -283 -227h360v-166h-389q-4 -58 -4 -84q0 -25 4 -65h389v-162h-362q63 -217 274 -217q115 0 258 31v-220q-85 -20 -137.5 -26t-138.5 -6 q-221 0 -362.5 109.5t-186.5 328.5h-127z" />
<glyph unicode="&#x2122;" horiz-adv-x="1792" d="M102 1182v161h562v-161h-189v-568h-184v568h-189zM774 614l25 729h262l149 -440h4l162 440h232l24 -729h-172l-16 512h-4l-148 -419h-182l-147 419h-7l-10 -512h-172z" />
<glyph unicode="&#x25fc;" horiz-adv-x="1013" d="M0 0v1014h1014v-1014h-1014z" />
</font>
</defs>
</svg>
