<?xml version="1.0" encoding="utf-8"?>
<!-- Generator: Adobe Illustrator 19.1.0, SVG Export Plug-In . SVG Version: 6.00 Build 0)  -->
<svg version="1.1" id="Laag_1" xmlns="http://www.w3.org/2000/svg" xmlns:xlink="http://www.w3.org/1999/xlink" x="0px" y="0px"
	 width="342.2px" height="177px" viewBox="0 0 342.2 177" style="enable-background:new 0 0 342.2 177;" xml:space="preserve">
<metadata><?xpacket begin="﻿" id="W5M0MpCehiHzreSzNTczkc9d"?>
<x:xmpmeta xmlns:x="adobe:ns:meta/" x:xmptk="Adobe XMP Core 5.6-c067 79.157747, 2015/03/30-23:40:42        ">
   <rdf:RDF xmlns:rdf="http://www.w3.org/1999/02/22-rdf-syntax-ns#">
      <rdf:Description rdf:about=""/>
   </rdf:RDF>
</x:xmpmeta>
                                                                                                    
                                                                                                    
                                                                                                    
                                                                                                    
                                                                                                    
                                                                                                    
                                                                                                    
                                                                                                    
                                                                                                    
                                                                                                    
                                                                                                    
                                                                                                    
                                                                                                    
                                                                                                    
                                                                                                    
                                                                                                    
                                                                                                    
                                                                                                    
                                                                                                    
                                                                                                    
                           
<?xpacket end="w"?></metadata>
<style type="text/css">
	.st0{fill:#154273;}
	.st1{fill:#94D9F7;}
</style>
<g>
	<path class="st0" d="M291.5,35.6c-8.9-2.1-20.7-2.1-29.4,0c-16.9,4.1-15.8,30.3-15.8,52.9c0.6,7.9,6.5,10.2,10.1,10.2v-7.9V74.8
		c0-9,0.9-16,2-19.4c0.3-1.1,1.1-0.9,1.1-0.9v41.6l2.3,56.3c0,0,7.7,6,8.7-7.2c0,0,4.8-54.9,4.8-55.4c0-0.6,0.4-1.3,1.4-1.3
		c1,0,1.4,0.7,1.4,1.3s6.8,51.6,6.8,51.6c0.8,13.6,4.9,6.8,4.9,6.8l4.2-52.2V54.5c0,0,0.8-0.3,1.2,0.9c1.1,3.1,1.9,10.5,1.9,19.3
		v16.9v7c3.6,0,9.5-2.2,10.1-10.2C307.3,65.8,308.4,39.5,291.5,35.6"/>
	<path class="st0" d="M170.9,177c-54.4,0-108.8,0-163.1,0c-0.8,0-1.6,0-2.4-0.1C2.3,176.6-0.1,174,0,171c0.1-3,2.4-5.5,5.5-5.8
		c0.5,0,1.1,0,1.6,0c109.3,0,218.6,0,327.9,0c2.1,0,4.1,0.3,5.6,2c1.5,1.7,2,3.7,1.2,5.9c-0.9,2.3-2.6,3.5-5,3.8
		c-0.8,0.1-1.6,0.1-2.4,0.1C279.9,177,225.4,177,170.9,177"/>
	<path class="st0" d="M289.6,14.6c-0.2,4.7-1.2,9.2-5.4,12c-4.4,3-9.1,3-13.8,0.9c-4.5-2-6.2-6.1-6.6-10.7
		c-0.4-4.1,0.1-8.1,2.5-11.6c2.8-4.2,8.1-6,13.7-4.8c5.2,1.1,8.4,4.7,9.3,10.3C289.5,12,289.7,13.2,289.6,14.6"/>
	<path class="st1" d="M165.3,151.5c0,0.5,0,1.3,0.9,1.4c0.9,0.1,1.2-0.6,1.3-1.3c0.1-0.9,0.3-1.7,0.4-2.6c0.1-1.3,0.7-1.9,2.1-1.9
		c3.4,0.1,6.8,0.1,10.2,0c1.4,0,2,0.4,1.9,1.9c-0.1,0.9,0,1.7,0,2.6c0,0.7,0,1.6,1,1.5c1,0,0.9-0.9,0.9-1.6c0-2.4,0-4.8,0-7.1
		c0-2.1-0.4-4.3,1-6.2c0.3-0.4,0.1-0.9-0.1-1.4c-0.5-1.4-1.7-1.5-2.9-1.5c-3.1,0-6.2,0-9.3,0c-2.6,0-2.6,0-3.1-2.6
		c-1-4.6-2-9.2-3-13.7c-0.4-1.8-1.4-2.6-2.7-2.3c-1.2,0.3-1.8,1.5-1.5,3.3c0.4,2.1,0.9,4.1,1.3,6.2c0.8,3.8,1.6,7.7,2.6,11.5
		c0.4,1.5,0.7,2.9,0.4,4.4C166.2,145.1,165.8,148.2,165.3,151.5 M137.9,130c0-3.5,0-6.9,0-10.4c0-2.1-0.4-2.5-2.4-2.5
		c-3.4,0-6.9,0-10.3,0c-2.5,0-3.1,0.5-3.1,3c0,6.6,0,13.2,0,19.8c0,2.2,0.6,2.8,2.8,2.8c3.5,0,7.1,0,10.6,0c2,0,2.4-0.5,2.4-2.5
		C137.9,136.8,137.9,133.4,137.9,130 M64.2,129.9c0,3.5,0,6.9,0,10.4c0,2,0.4,2.5,2.5,2.5c3.6,0,7.2,0,10.8,0c2.1,0,2.6-0.5,2.6-2.6
		c0-6.9,0-13.7,0-20.6c0-2-0.4-2.4-2.3-2.4c-3.7,0-7.4,0-11.1,0c-2,0-2.3,0.4-2.4,2.4C64.2,123,64.2,126.4,64.2,129.9 M109.8,130.8
		c-0.1-3.6,0.1-7.4-0.3-11.3c-0.2-2-0.5-2.4-2.6-2.4c-3.3,0-6.7,0-10,0c-2.6,0-3.3,0.5-3.3,3.2c0,4.4,0,8.8,0,13.3c0,2,0,4,0,6
		c0.1,2.1,1.1,3.2,2.9,3.2c3.4,0.1,6.9,0.1,10.3,0c2-0.1,2.9-1.1,2.9-3.1C109.8,136.7,109.8,133.9,109.8,130.8 M125.6,109
		c23.7,0,47.4,0,71.1,0c3.2,0,3.4,0.2,3.4,3.4c0,14.8,0,29.6,0,44.4c0,3.4-0.4,3.7-3.7,3.7c-47.4,0-94.9,0-142.3,0
		c-3.4,0-3.8-0.4-3.8-3.8c0-14.6,0-29.3,0-43.9c0-3.5,0.3-3.8,3.8-3.8C77.9,109,101.8,109,125.6,109L125.6,109z"/>
	<path class="st1" d="M124.9,100.9c-24,0-48,0-72,0c-2.6,0-2.6,0-2.6-2.6c0-5.5,0-11,0-16.5c0-2.8,0.3-3.3,3.1-4.4
		c10-4,20-8.1,29.9-12.1c5.8-2.3,11.7-4.6,17.5-7c1.1-0.4,1.3,0.1,1.6,0.9c2.1,5.1,3.3,10.5,4.9,15.8c0.2,0.6,0.3,1.2,0.6,1.7
		c0.5,1.2,1.4,1.7,2.7,1.1c6.7-2.7,13.4-5.4,20.1-8c9.4-3.8,18.8-7.5,28.2-11.3c1.2-0.5,1.6-0.1,1.9,1c1.5,5.4,2.3,11,3.3,16.5
		c0.4,2.5,0.8,2.9,3.4,2.9c9.7,0,19.4,0,29,0c3.2,0,3.5,0.3,3.5,3.5c0,5,0,10.1,0,15.1c0,3.2-0.3,3.5-3.6,3.5
		C172.7,100.9,148.8,100.9,124.9,100.9"/>
	<path class="st1" d="M175.1,144.7c-1.7,0-3.4,0-5.2,0c-0.9,0-1.3-0.3-1.1-1.3c0-0.2,0-0.3,0-0.5c0.3-3.1,0.3-3.1,3.4-3.1
		c2.6,0,5.3,0,7.9,0c1.3,0,1.8,0.5,1.7,1.7c0,0.4,0,0.8,0,1.1c0.2,1.6-0.5,2.1-2,2C178.2,144.6,176.6,144.7,175.1,144.7L175.1,144.7
		z"/>
	<path class="st1" d="M268.6,34.6l-2.5,0.3l-0.5,16.9l-6.1,9.7l0.1,99.6c0,0,12.2,0.6,13.9-12.9s2.3-50.8,2.3-50.8s0.3-1.1,1.2-1.1
		c0.5,0,1.3,0.2,1.3,1.1c0,2.8,1.7,51,1.7,51s1.3,13.2,14.2,12.5c1.5-0.1,0.1-99.4,0.1-99.4l-6.2-9.6l0.1-16.6l-2.9-0.4l0,16.7
		l-16.6-0.1L268.6,34.6z"/>
	<path class="st1" d="M314.3,111.3c-0.4,0.7-1.3,1.8-2.6,2.8c-1.4,1-2.3,1.6-4.1,2.2c-1.1,0.3-2.1,0.5-2.1,0.5l-0.5-1.6
		c-0.6,0.2-0.8,0.5-0.9,1.2c-0.1,0.7-0.5,1-1.1,1.2c-0.3,0.1-0.9,0.3-0.9,0.3l-1.4-4.4c0,0,0.5-0.2,0.9-0.3c0.6-0.2,1.1-0.2,1.6,0.3
		c0.5,0.5,0.8,0.6,1.4,0.5l-0.5-1.5c0.3-0.2,0.9-0.4,1.6-0.6c0.5-0.2,1.9-0.4,2.9-0.3c1,0.1,3.1,0.4,4.3-1.2
		c0.3-0.4,0.8-0.6,1.2-0.3C314.6,110.3,314.5,110.9,314.3,111.3"/>
	<path class="st1" d="M305.6,111l-2.6-8.6l-4.2-13.7c0,0,2.3-1.2,3.5,2.5l4.4,14.3l1.7,5.3c-0.1,0-0.2,0-0.2,0
		C307.2,110.7,306.3,110.8,305.6,111"/>
</g>
</svg>
