<svg id="Laag_1" xmlns="http://www.w3.org/2000/svg" width="342.2" height="177" viewBox="0 0 342.2 177"><style>.st0{fill:#154273}.st1{fill:#94d9f7}</style><path class="st0" d="M291.5 35.6c-8.9-2.1-20.7-2.1-29.4 0-16.9 4.1-15.8 30.3-15.8 52.9.6 7.9 6.5 10.2 10.1 10.2V74.8c0-9 .9-16 2-19.4.3-1.1 1.1-.9 1.1-.9v41.6l2.3 56.3s7.7 6 8.7-7.2c0 0 4.8-54.9 4.8-55.4 0-.6.4-1.3 1.4-1.3 1 0 1.4.7 1.4 1.3s6.8 51.6 6.8 51.6c.8 13.6 4.9 6.8 4.9 6.8L294 96V54.5s.8-.3 1.2.9c1.1 3.1 1.9 10.5 1.9 19.3v23.9c3.6 0 9.5-2.2 10.1-10.2.1-22.6 1.2-48.9-15.7-52.8M170.9 177H7.8c-.8 0-1.6 0-2.4-.1-3.1-.3-5.5-2.9-5.4-5.9.1-3 2.4-5.5 5.5-5.8H335c2.1 0 4.1.3 5.6 2s2 3.7 1.2 5.9c-.9 2.3-2.6 3.5-5 3.8-.8.1-1.6.1-2.4.1H170.9M289.6 14.6c-.2 4.7-1.2 9.2-5.4 12-4.4 3-9.1 3-13.8.9-4.5-2-6.2-6.1-6.6-10.7-.4-4.1.1-8.1 2.5-11.6 2.8-4.2 8.1-6 13.7-4.8 5.2 1.1 8.4 4.7 9.3 10.3.2 1.3.4 2.5.3 3.9"/><path class="st1" d="M165.3 151.5c0 .5 0 1.3.9 1.4.9.1 1.2-.6 1.3-1.3.1-.9.3-1.7.4-2.6.1-1.3.7-1.9 2.1-1.9 3.4.1 6.8.1 10.2 0 1.4 0 2 .4 1.9 1.9-.1.9 0 1.7 0 2.6 0 .7 0 1.6 1 1.5 1 0 .9-.9.9-1.6v-7.1c0-2.1-.4-4.3 1-6.2.3-.4.1-.9-.1-1.4-.5-1.4-1.7-1.5-2.9-1.5h-9.3c-2.6 0-2.6 0-3.1-2.6-1-4.6-2-9.2-3-13.7-.4-1.8-1.4-2.6-2.7-2.3-1.2.3-1.8 1.5-1.5 3.3.4 2.1.9 4.1 1.3 6.2.8 3.8 1.6 7.7 2.6 11.5.4 1.5.7 2.9.4 4.4-.5 3-.9 6.1-1.4 9.4M137.9 130v-10.4c0-2.1-.4-2.5-2.4-2.5h-10.3c-2.5 0-3.1.5-3.1 3v19.8c0 2.2.6 2.8 2.8 2.8h10.6c2 0 2.4-.5 2.4-2.5V130m-73.7-.1v10.4c0 2 .4 2.5 2.5 2.5h10.8c2.1 0 2.6-.5 2.6-2.6v-20.6c0-2-.4-2.4-2.3-2.4H66.7c-2 0-2.3.4-2.4 2.4-.1 3.4-.1 6.8-.1 10.3m45.6.9c-.1-3.6.1-7.4-.3-11.3-.2-2-.5-2.4-2.6-2.4h-10c-2.6 0-3.3.5-3.3 3.2v19.3c.1 2.1 1.1 3.2 2.9 3.2 3.4.1 6.9.1 10.3 0 2-.1 2.9-1.1 2.9-3.1.1-3 .1-5.8.1-8.9m15.8-21.8h71.1c3.2 0 3.4.2 3.4 3.4v44.4c0 3.4-.4 3.7-3.7 3.7H54.1c-3.4 0-3.8-.4-3.8-3.8v-43.9c0-3.5.3-3.8 3.8-3.8h71.5zM124.9 100.9h-72c-2.6 0-2.6 0-2.6-2.6V81.8c0-2.8.3-3.3 3.1-4.4 10-4 20-8.1 29.9-12.1 5.8-2.3 11.7-4.6 17.5-7 1.1-.4 1.3.1 1.6.9 2.1 5.1 3.3 10.5 4.9 15.8.2.6.3 1.2.6 1.7.5 1.2 1.4 1.7 2.7 1.1 6.7-2.7 13.4-5.4 20.1-8 9.4-3.8 18.8-7.5 28.2-11.3 1.2-.5 1.6-.1 1.9 1 1.5 5.4 2.3 11 3.3 16.5.4 2.5.8 2.9 3.4 2.9h29c3.2 0 3.5.3 3.5 3.5v15.1c0 3.2-.3 3.5-3.6 3.5-23.7-.1-47.6-.1-71.5-.1"/><path class="st1" d="M175.1 144.7h-5.2c-.9 0-1.3-.3-1.1-1.3v-.5c.3-3.1.3-3.1 3.4-3.1h7.9c1.3 0 1.8.5 1.7 1.7v1.1c.2 1.6-.5 2.1-2 2-1.6 0-3.2.1-4.7.1zM268.6 34.6l-2.5.3-.5 16.9-6.1 9.7.1 99.6s12.2.6 13.9-12.9 2.3-50.8 2.3-50.8.3-1.1 1.2-1.1c.5 0 1.3.2 1.3 1.1 0 2.8 1.7 51 1.7 51s1.3 13.2 14.2 12.5c1.5-.1.1-99.4.1-99.4l-6.2-9.6.1-16.6-2.9-.4v16.7l-16.6-.1-.1-16.9zM314.3 111.3c-.4.7-1.3 1.8-2.6 2.8-1.4 1-2.3 1.6-4.1 2.2-1.1.3-2.1.5-2.1.5l-.5-1.6c-.6.2-.8.5-.9 1.2-.1.7-.5 1-1.1 1.2l-.9.3-1.4-4.4s.5-.2.9-.3c.6-.2 1.1-.2 1.6.3s.8.6 1.4.5l-.5-1.5c.3-.2.9-.4 1.6-.6.5-.2 1.9-.4 2.9-.3 1 .1 3.1.4 4.3-1.2.3-.4.8-.6 1.2-.3.5.2.4.8.2 1.2M305.6 111l-2.6-8.6-4.2-13.7s2.3-1.2 3.5 2.5l4.4 14.3 1.7 5.3h-.2c-1-.1-1.9 0-2.6.2"/></svg>