<svg id="Laag_1" xmlns="http://www.w3.org/2000/svg" width="334" height="214.1" viewBox="0 0 334 214.1"><style>.st0{fill:#245278}.st1{fill:#f3f3f3}.st2{fill:#94d9f7}</style><path class="st0" d="M222.4 161.2c.4 29.4-24.4 52.9-52.6 52.8-28.8 0-53-23.5-53-52.8 0-29.3 24.2-52.9 53-52.8 28.2 0 53 23.4 52.6 52.8M34.5 52.6H2.1C.8 52.5 0 51.7 0 50.5c-.1-2.1 0-4.2 0-6.3 0-.8.6-1.5 1-2.1 1.8-2.7 3.6-5.5 5.5-8.2.8-1.2 1.2-2.4 1.2-3.9.5-8.6.9-17.2 1.3-25.7.1-3.1 1.3-4.3 4.5-4.3H56c3.1 0 4.3 1.2 4.4 4.3.4 8.6.8 17.1 1.1 25.7.1 1.4.4 2.5 1.1 3.6 1.8 2.5 3.4 5.2 5.2 7.7 1.1 1.5 1.6 3.1 1.5 5-.1 1.2 0 2.4 0 3.6-.1 1.9-.7 2.5-2.5 2.6-1.2.1-2.4 0-3.6 0-9.5.1-19.1.1-28.7.1M172.7 77.8c-.2 7.8 0 15-.1 22.1-.7.8-1.4.5-2.4.5V78.7c-.4-.4-.4-.5-.5-.5-.1-.1-.2-.1-.3-.1-.2-.1-.4-.1-.6-.1h-.6c-44.8 0-89.7 0-134.5-.1-.1 0-.2 0-.6-.1V66.6c-.7-.6-1.3-1-1.8-1.5-2-2.1-1.9-5.1.1-6.9 1.9-1.7 5-1.5 6.7.4 1.8 2.1 1.5 5.1-.7 6.9-.5.4-1.3.6-1.7 1.3V75c2.8.7 131.6.6 134-.1.6-1.3.2-2.7.3-4.1.1-1.4 0-2.8 0-3.8-.6-1.2-1.6-1.4-2.2-2.1-1.8-2-1.7-5 .2-6.7 1.8-1.7 4.7-1.7 6.5 0 1.9 1.8 2.2 5.2.1 6.6-2.3 1.6-2.3 3.5-2.1 5.7.1 1.5-.2 3 .4 4.8 45.6.3 91-.2 136.9-.3.3-2.9.2-5.6.1-8.3-3.8-2.8-4.6-5.8-2.4-8.2 1.8-2 5.1-2.1 6.9-.1 2.2 2.3 1.6 5.3-1.8 8.1v11.3H172.7zM172.5 1.3h26.1c1.2.2 2 .9 2.1 2.1.1.7 0 1.4 0 2.1v42.8c-.1 1.8-.7 2.5-2.5 2.8-.8.1-1.6.1-2.4.1h-48.5c-2.8-.2-3.5-.8-3.5-3.7V4.7c0-2.9.6-3.5 3.5-3.5 8.4.1 16.8.1 25.2.1M333.5 40.6c-2-1.1-3.3-3-5.6-3.5-1.9.8-3 2.8-4.6 4 0 2.6 2.1 3.9 3.3 5.8-2 1.5-3.7.5-5.2-.4-3.6-2-4.6-5-3.9-9.6-5.7-5.6-11.2-11.2-17-16.9-7 .7-11.1-2.8-10.2-9.2 2.1.8 3.1 3.1 5.6 3.4 1.6-.6 2.6-2.2 3.8-3.4.9-1 .5-2 0-3-.7-1.3-2.1-2.2-2.5-3.6 3-1.3 5.5-.4 7.8 2.4 2.8 3.4 2.4 5.9-1.7 11.7 1.9 0 2.7-1.6 3.8-2l14.2 14.2c-.4.7-1.8 1.6-2 3.7 2.5-1.8 4.5-3.9 7.5-3.6 1.7.2 3 1 4.3 2 2.7 2.4 3.5 5 2.4 8"/><path class="st0" d="M318.9 24c-1.9-1.9-3.5-3.6-5.1-5.2.2-.9 1.1-1.4 1.7-2 3.7-3.8 7.5-7.5 11.2-11.2 1.9-1.9 3-1.8 5 .2 1.9 1.9 2.1 3.3.3 5.1-4.3 4.4-8.6 8.6-13.1 13.1M292.6 42.9c.8-1.4 1.4-2.6 2.1-3.7.4-.7.9-1.4 1.8-1.4 1.5-.1 2.3-1.1 3.2-2 2.2-2.4 4.5-4.8 6.5-7 1.6.3 2 1 2.6 2-2.2 2.2-4.4 4.4-6.6 6.7-1 1-2.1 1.8-2.1 3.4 0 .8-.7 1.4-1.4 1.8-1.2.7-2.4 1.4-3.5 2-1.3-.1-1.7-1.1-2.6-1.8"/><path class="st1" d="M217 161.3c-.2 26.3-21.4 47.4-47.6 47.2-26.3-.2-47.1-21.1-47.1-47.4.1-26.7 21.4-47.3 47.6-47.2 26.3.1 47.1 21.4 47.1 47.4M13.9 5c3.2-.4 39.1-.4 41.6.1.9 8.3.6 16.8 1.4 24.9.8 1.4 2.5.7 3.2 1.9-2 .6-47.1.8-50.8.2.5-1.4 2.2-.7 3.2-2 .8-8.1.5-16.5 1.4-25.1M41 38.5c1.1 1.6 2 3.2 2.6 5.2H25.8c.6-2 1.5-3.7 2.6-5.2H41zM198.2 12.1c.3 2.7.3 33.3 0 36.1-.1.1-.1.2-.2.2-.1.1-.2.1-.2.1-.8.1-1.6.2-2.4.2h-48.8c-.7-2.2-.9-32.6-.3-36.5 2.2-.5 48.5-.7 51.9-.1M156.8 9.2c-1.5-.1-2.7-1.3-2.6-2.7 0-1.4 1.5-2.9 2.9-2.9s2.8 1.6 2.8 3c-.1 1.5-1.5 2.7-3.1 2.6M151.7 6.6c-.1 1.5-1.5 2.8-3 2.6-1.4-.1-2.6-1.4-2.6-2.8 0-1.5 1.4-2.9 2.8-2.9 1.6.2 2.9 1.6 2.8 3.1M167.9 6.4c.1 1.5-1.3 2.9-2.8 2.9-1.4 0-2.7-1.2-2.8-2.6-.1-1.5 1.2-3 2.7-3 1.4-.2 2.8 1.2 2.9 2.7"/><path class="st0" d="M36.9 20.9c-1.2.6-.9 2-1.9 2.7-2.4-3.7-4.9-7.4-7.7-11.7 5 1.2 9.4 2.3 13.9 3.4-.4 1.4-1.8 1.3-2.1 2.5 1 1.3 2.8 1.8 4 3.1-.2 1.1-.7 1.8-1.6 2.4-1.7-.4-2.9-1.8-4.6-2.4M178.4 32.6c-.3.4-.5.7-.7 1.1-1.2 0-1.9-1.1-3-1.3-.8.1-.8 1-1.5 1.4-1.4-2.2-2.8-4.3-4.3-6.8 3 .2 5.5 1.1 8.1 1.8.1.8-.9.9-.6 2.1.1.5 1.4.6 2 1.7"/><path class="st2" d="M155.7 170.9h29.8s3.6.3 4.4-4.4c.7-3.9 2.9-20.7 2.9-20.7s.1-3.3-3.2-3.3h-35.8l-.5-3.7c-.2-1.6-1.6-2.8-3.3-2.8h-6.3c-1.2 0-2.2 1-2.2 2.2 0 2.8 4.8 3.1 7.7 3.2l3.4 25.1c-.2 0-4.5 1.2-4.5 6.5 0 4.4 2.5 7.6 7.3 7.6h31.3c2.6 0 2.8-4.2 0-4.4 0 0-16.5-.5-30.8-.8-.8 0-2.5-.3-2.5-2.5-.1-1.1.7-2 2.3-2"/><path class="st1" d="M163.3 146.9v10.8c-.1 0-.3 0-.4-.2-.6-1.4-1.2-2.9-1.2-2.9h-6.5l-1-7.6h9.1zM167.7 158.9h7.7v7.6h-7.7zM167.7 146.9h7.7v10.8c-.1 0-.3 0-.4-.2-.6-1.5-1.2-2.9-1.2-2.9h-6.1v-7.7zM179.8 158.9h6.7l-1 7.7h-5.7zM179.8 146.9h8.4l-1.5 10.8c-.1 0-.3 0-.4-.3-.3-1.5-.7-2.9-.7-2.9h-5.8v-7.6zM163.3 166.6H157l-1.1-7.7h7.4z"/><path class="st2" d="M154.6 181.9c-2.4 0-4.4 1.9-4.4 4.3s1.9 4.3 4.4 4.3c2.4 0 4.3-1.9 4.3-4.3s-1.9-4.3-4.3-4.3M183.1 181.9c-2.4 0-4.4 1.9-4.4 4.3s1.9 4.3 4.4 4.3c2.4 0 4.3-1.9 4.3-4.3s-1.9-4.3-4.3-4.3"/></svg>