<?xml version="1.0" encoding="utf-8"?>
<!-- Generator: Adobe Illustrator 19.0.1, SVG Export Plug-In . SVG Version: 6.00 Build 0)  -->
<svg version="1.1" id="Laag_1" xmlns="http://www.w3.org/2000/svg" xmlns:xlink="http://www.w3.org/1999/xlink" x="0px" y="0px"
	 width="334px" height="214.1px" viewBox="0 0 334 214.1" style="enable-background:new 0 0 334 214.1;" xml:space="preserve">
<style type="text/css">
	.st0{fill:#245278;}
	.st1{fill:#F3F3F3;}
	.st2{fill:#94D9F7;}
</style>
<path class="st0" d="M222.4,161.2c0.4,29.4-24.4,52.9-52.6,52.8c-28.8,0-53-23.5-53-52.8c0-29.3,24.2-52.9,53-52.8
	C198,108.4,222.8,131.8,222.4,161.2"/>
<path class="st0" d="M34.5,52.6c-10,0-20,0-30,0c-0.8,0-1.6,0-2.4,0c-1.3-0.1-2.1-0.9-2.1-2.1c-0.1-2.1,0-4.2,0-6.3
	c0-0.8,0.6-1.5,1-2.1c1.8-2.7,3.6-5.5,5.5-8.2c0.8-1.2,1.2-2.4,1.2-3.9C8.2,21.4,8.6,12.8,9,4.3C9.1,1.2,10.3,0,13.5,0
	C27.7,0,41.9,0,56,0c3.1,0,4.3,1.2,4.4,4.3c0.4,8.6,0.8,17.1,1.1,25.7c0.1,1.4,0.4,2.5,1.1,3.6c1.8,2.5,3.4,5.2,5.2,7.7
	c1.1,1.5,1.6,3.1,1.5,5c-0.1,1.2,0,2.4,0,3.6c-0.1,1.9-0.7,2.5-2.5,2.6c-1.2,0.1-2.4,0-3.6,0C53.7,52.6,44.1,52.6,34.5,52.6"/>
<path class="st0" d="M172.7,77.8c-0.2,7.8,0,15-0.1,22.1c-0.7,0.8-1.4,0.5-2.4,0.5V78.7c-0.4-0.4-0.4-0.5-0.5-0.5
	c-0.1-0.1-0.2-0.1-0.3-0.1c-0.2-0.1-0.4-0.1-0.6-0.1c-0.2,0-0.4,0-0.6,0c-44.8,0-89.7,0-134.5-0.1c-0.1,0-0.2,0-0.6-0.1V66.6
	c-0.7-0.6-1.3-1-1.8-1.5c-2-2.1-1.9-5.1,0.1-6.9c1.9-1.7,5-1.5,6.7,0.4c1.8,2.1,1.5,5.1-0.7,6.9c-0.5,0.4-1.3,0.6-1.7,1.3V75
	c2.8,0.7,131.6,0.6,134-0.1c0.6-1.3,0.2-2.7,0.3-4.1c0.1-1.4,0-2.8,0-3.8c-0.6-1.2-1.6-1.4-2.2-2.1c-1.8-2-1.7-5,0.2-6.7
	c1.8-1.7,4.7-1.7,6.5,0c1.9,1.8,2.2,5.2,0.1,6.6c-2.3,1.6-2.3,3.5-2.1,5.7c0.1,1.5-0.2,3,0.4,4.8c45.6,0.3,91-0.2,136.9-0.3
	c0.3-2.9,0.2-5.6,0.1-8.3c-3.8-2.8-4.6-5.8-2.4-8.2c1.8-2,5.1-2.1,6.9-0.1c2.2,2.3,1.6,5.3-1.8,8.1v11.3H172.7z"/>
<path class="st0" d="M172.5,1.3c8,0,16,0,24,0c0.7,0,1.4,0,2.1,0c1.2,0.2,2,0.9,2.1,2.1c0.1,0.7,0,1.4,0,2.1c0,13.8,0,27.5,0,41.3
	c0,0.5,0,1,0,1.5c-0.1,1.8-0.7,2.5-2.5,2.8c-0.8,0.1-1.6,0.1-2.4,0.1c-15.7,0-31.3,0-47,0c-0.5,0-1,0-1.5,0
	c-2.8-0.2-3.5-0.8-3.5-3.7c0-14.3,0-28.5,0-42.8c0-2.9,0.6-3.5,3.5-3.5C155.7,1.3,164.1,1.3,172.5,1.3"/>
<path class="st0" d="M333.5,40.6c-2-1.1-3.3-3-5.6-3.5c-1.9,0.8-3,2.8-4.6,4c0,2.6,2.1,3.9,3.3,5.8c-2,1.5-3.7,0.5-5.2-0.4
	c-3.6-2-4.6-5-3.9-9.6c-5.7-5.6-11.2-11.2-17-16.9c-7,0.7-11.1-2.8-10.2-9.2c2.1,0.8,3.1,3.1,5.6,3.4c1.6-0.6,2.6-2.2,3.8-3.4
	c0.9-1,0.5-2,0-3c-0.7-1.3-2.1-2.2-2.5-3.6c3-1.3,5.5-0.4,7.8,2.4c2.8,3.4,2.4,5.9-1.7,11.7c1.9,0,2.7-1.6,3.8-2
	c4.7,4.7,9.4,9.4,14.2,14.2c-0.4,0.7-1.8,1.6-2,3.7c2.5-1.8,4.5-3.9,7.5-3.6c1.7,0.2,3,1,4.3,2C333.8,35,334.6,37.6,333.5,40.6"/>
<path class="st0" d="M318.9,24c-1.9-1.9-3.5-3.6-5.1-5.2c0.2-0.9,1.1-1.4,1.7-2c3.7-3.8,7.5-7.5,11.2-11.2c1.9-1.9,3-1.8,5,0.2
	c1.9,1.9,2.1,3.3,0.3,5.1C327.7,15.3,323.4,19.5,318.9,24"/>
<path class="st0" d="M292.6,42.9c0.8-1.4,1.4-2.6,2.1-3.7c0.4-0.7,0.9-1.4,1.8-1.4c1.5-0.1,2.3-1.1,3.2-2c2.2-2.4,4.5-4.8,6.5-7
	c1.6,0.3,2,1,2.6,2c-2.2,2.2-4.4,4.4-6.6,6.7c-1,1-2.1,1.8-2.1,3.4c0,0.8-0.7,1.4-1.4,1.8c-1.2,0.7-2.4,1.4-3.5,2
	C293.9,44.6,293.5,43.6,292.6,42.9"/>
<path class="st1" d="M217,161.3c-0.2,26.3-21.4,47.4-47.6,47.2c-26.3-0.2-47.1-21.1-47.1-47.4c0.1-26.7,21.4-47.3,47.6-47.2
	C196.2,114,217,135.3,217,161.3"/>
<path class="st1" d="M13.9,5C17.1,4.6,53,4.6,55.5,5.1c0.9,8.3,0.6,16.8,1.4,24.9c0.8,1.4,2.5,0.7,3.2,1.9c-2,0.6-47.1,0.8-50.8,0.2
	c0.5-1.4,2.2-0.7,3.2-2C13.3,22,13,13.6,13.9,5"/>
<path class="st1" d="M41,38.5c1.1,1.6,2,3.2,2.6,5.2H25.8c0.6-2,1.5-3.7,2.6-5.2H41z"/>
<path class="st1" d="M198.2,12.1c0.3,2.7,0.3,33.3,0,36.1c-0.1,0.1-0.1,0.2-0.2,0.2c-0.1,0.1-0.2,0.1-0.2,0.1
	c-0.8,0.1-1.6,0.2-2.4,0.2c-16.3,0-32.5,0-48.8,0c-0.7-2.2-0.9-32.6-0.3-36.5C148.5,11.7,194.8,11.5,198.2,12.1"/>
<path class="st1" d="M156.8,9.2c-1.5-0.1-2.7-1.3-2.6-2.7c0-1.4,1.5-2.9,2.9-2.9c1.4,0,2.8,1.6,2.8,3C159.8,8.1,158.4,9.3,156.8,9.2
	"/>
<path class="st1" d="M151.7,6.6c-0.1,1.5-1.5,2.8-3,2.6c-1.4-0.1-2.6-1.4-2.6-2.8c0-1.5,1.4-2.9,2.8-2.9
	C150.5,3.7,151.8,5.1,151.7,6.6"/>
<path class="st1" d="M167.9,6.4c0.1,1.5-1.3,2.9-2.8,2.9c-1.4,0-2.7-1.2-2.8-2.6c-0.1-1.5,1.2-3,2.7-3
	C166.4,3.5,167.8,4.9,167.9,6.4"/>
<path class="st0" d="M36.9,20.9c-1.2,0.6-0.9,2-1.9,2.7c-2.4-3.7-4.9-7.4-7.7-11.7c5,1.2,9.4,2.3,13.9,3.4c-0.4,1.4-1.8,1.3-2.1,2.5
	c1,1.3,2.8,1.8,4,3.1c-0.2,1.1-0.7,1.8-1.6,2.4C39.8,22.9,38.6,21.5,36.9,20.9"/>
<path class="st0" d="M178.4,32.6c-0.3,0.4-0.5,0.7-0.7,1.1c-1.2,0-1.9-1.1-3-1.3c-0.8,0.1-0.8,1-1.5,1.4c-1.4-2.2-2.8-4.3-4.3-6.8
	c3,0.2,5.5,1.1,8.1,1.8c0.1,0.8-0.9,0.9-0.6,2.1C176.5,31.4,177.8,31.5,178.4,32.6"/>
<path class="st2" d="M155.7,170.9h29.8c0,0,3.6,0.3,4.4-4.4c0.7-3.9,2.9-20.7,2.9-20.7s0.1-3.3-3.2-3.3h-35.8l-0.5-3.7
	c-0.2-1.6-1.6-2.8-3.3-2.8h-6.3c-1.2,0-2.2,1-2.2,2.2c0,2.8,4.8,3.1,7.7,3.2l3.4,25.1c-0.2,0-4.5,1.2-4.5,6.5c0,4.4,2.5,7.6,7.3,7.6
	h31.3c2.6,0,2.8-4.2,0-4.4c0,0-16.5-0.5-30.8-0.8c-0.8,0-2.5-0.3-2.5-2.5C153.3,171.8,154.1,170.9,155.7,170.9"/>
<path class="st1" d="M163.3,146.9v10.8c-0.1,0-0.3,0-0.4-0.2c-0.6-1.4-1.2-2.9-1.2-2.9h-6.5l-1-7.6H163.3z"/>
<rect x="167.7" y="158.9" class="st1" width="7.7" height="7.6"/>
<path class="st1" d="M167.7,146.9h7.7v10.8c-0.1,0-0.3,0-0.4-0.2c-0.6-1.5-1.2-2.9-1.2-2.9h-6.1V146.9z"/>
<polygon class="st1" points="179.8,158.9 186.5,158.9 185.5,166.6 179.8,166.6 "/>
<path class="st1" d="M179.8,146.9h8.4l-1.5,10.8c-0.1,0-0.3,0-0.4-0.3c-0.3-1.5-0.7-2.9-0.7-2.9h-5.8V146.9z"/>
<polygon class="st1" points="163.3,166.6 157,166.6 155.9,158.9 163.3,158.9 "/>
<path class="st2" d="M154.6,181.9c-2.4,0-4.4,1.9-4.4,4.3c0,2.4,1.9,4.3,4.4,4.3c2.4,0,4.3-1.9,4.3-4.3
	C158.9,183.8,157,181.9,154.6,181.9"/>
<path class="st2" d="M183.1,181.9c-2.4,0-4.4,1.9-4.4,4.3c0,2.4,1.9,4.3,4.4,4.3c2.4,0,4.3-1.9,4.3-4.3
	C187.4,183.8,185.5,181.9,183.1,181.9"/>
</svg>
