<?xml version="1.0" encoding="utf-8"?>
<!-- Generator: Adobe Illustrator 19.1.0, SVG Export Plug-In . SVG Version: 6.00 Build 0)  -->
<svg version="1.1" id="Laag_1" xmlns="http://www.w3.org/2000/svg" xmlns:xlink="http://www.w3.org/1999/xlink" x="0px" y="0px"
	 width="74.2px" height="83.7px" viewBox="0 0 74.2 83.7" style="enable-background:new 0 0 74.2 83.7;" xml:space="preserve">
<metadata><?xpacket begin="﻿" id="W5M0MpCehiHzreSzNTczkc9d"?>
<x:xmpmeta xmlns:x="adobe:ns:meta/" x:xmptk="Adobe XMP Core 5.6-c067 79.157747, 2015/03/30-23:40:42        ">
   <rdf:RDF xmlns:rdf="http://www.w3.org/1999/02/22-rdf-syntax-ns#">
      <rdf:Description rdf:about=""/>
   </rdf:RDF>
</x:xmpmeta>
                                                                                                    
                                                                                                    
                                                                                                    
                                                                                                    
                                                                                                    
                                                                                                    
                                                                                                    
                                                                                                    
                                                                                                    
                                                                                                    
                                                                                                    
                                                                                                    
                                                                                                    
                                                                                                    
                                                                                                    
                                                                                                    
                                                                                                    
                                                                                                    
                                                                                                    
                                                                                                    
                           
<?xpacket end="w"?></metadata>
<style type="text/css">
	.st0{fill:#154273;}
</style>
<g>
	<path class="st0" d="M27.6,5.9c12.1,0,21.9,4.4,21.9,9.8s-9.8,9.8-21.9,9.8S5.8,21.1,5.8,15.7S15.6,5.9,27.6,5.9 M25.3,58.3
		c-15.2-0.8-18.6-7-19-8c-0.1-0.4-0.1-0.6,0-0.7c4.4,3,10.7,5.1,18.1,5.5c-0.3-2.8,0.8-5.6,3-7.4c3.2-2.7,7.9-2.6,11,0.1l5.3,4.6
		c7.1-2.8,11.7-7.5,11.7-12.9v-7.5c0-0.3-0.1-0.7-0.1-1C53.3,33.5,45.6,42,28.4,42c-17.9,0-21.8-7-22.2-8.1c-0.1-0.4-0.1-0.6,0-0.7
		c5,3.5,12.7,5.7,21.4,5.7c15.5,0,27.6-6.9,27.6-15.7v-7.5C55.3,6.9,43.1,0,27.6,0C12.1,0,0,6.9,0,15.7v7.5c0,1.6,0.4,3.1,1.1,4.5
		C0.4,29.1,0,30.6,0,32.1v7.5c0,1.6,0.4,3.1,1.1,4.5C0.4,45.5,0,47,0,48.6V56c0,8.8,12.1,15.7,27.6,15.7c1.8,0,3.5-0.1,5.2-0.3
		l-7.5-12.8C25.3,58.5,25.3,58.4,25.3,58.3"/>
	<path class="st0" d="M23.4,19.4v1.3h3.1v-1.1c0.6,0,1.3,0,2,0h0.8v1.1h3v-1.2c5.5-0.6,8.1-2.5,8.1-5.3c0-1.1-0.1-1.6-0.6-2.7h-4.1
		c0.4,1,0.6,1.5,0.6,2.5c0,1.2-1.2,2.2-4,2.7v-3.5h-3v3.8c-0.4,0-0.8,0-1.2,0c-0.5,0-1,0-1.6,0v-3.8h-3.1v3.5
		c-2.8-0.4-4.2-1.3-4.2-2.7c0-0.8,0.1-1.3,0.5-2.3h-4.3c-0.3,0.9-0.5,1.4-0.5,2.2C14.9,16.7,17.8,18.7,23.4,19.4"/>
	<path class="st0" d="M72.5,38.6c-1.7-1.2-4-1-5.4,0.6L47.2,61.5L35.4,51.2c-1.5-1.3-3.7-1.3-5.2-0.1c-1.5,1.3-1.9,3.4-0.9,5.2
		L44,81.7c0.7,1.2,2,2,3.5,2h0c1.4,0,2.7-0.7,3.5-2l22.6-37.8C74.7,42.1,74.2,39.8,72.5,38.6"/>
</g>
</svg>
