<svg id="Laag_1" xmlns="http://www.w3.org/2000/svg" width="74.2" height="83.7" viewBox="0 0 74.2 83.7"><style>.st0{fill:#154273}</style><path class="st0" d="M27.6 5.9c12.1 0 21.9 4.4 21.9 9.8s-9.8 9.8-21.9 9.8-21.8-4.4-21.8-9.8 9.8-9.8 21.8-9.8m-2.3 52.4c-15.2-.8-18.6-7-19-8-.1-.4-.1-.6 0-.7 4.4 3 10.7 5.1 18.1 5.5-.3-2.8.8-5.6 3-7.4 3.2-2.7 7.9-2.6 11 .1l5.3 4.6c7.1-2.8 11.7-7.5 11.7-12.9V32c0-.3-.1-.7-.1-1-2 2.5-9.7 11-26.9 11-17.9 0-21.8-7-22.2-8.1-.1-.4-.1-.6 0-.7 5 3.5 12.7 5.7 21.4 5.7 15.5 0 27.6-6.9 27.6-15.7v-7.5C55.3 6.9 43.1 0 27.6 0 12.1 0 0 6.9 0 15.7v7.5c0 1.6.4 3.1 1.1 4.5C.4 29.1 0 30.6 0 32.1v7.5c0 1.6.4 3.1 1.1 4.5C.4 45.5 0 47 0 48.6V56c0 8.8 12.1 15.7 27.6 15.7 1.8 0 3.5-.1 5.2-.3l-7.5-12.8v-.3"/><path class="st0" d="M23.4 19.4v1.3h3.1v-1.1h2.8v1.1h3v-1.2c5.5-.6 8.1-2.5 8.1-5.3 0-1.1-.1-1.6-.6-2.7h-4.1c.4 1 .6 1.5.6 2.5 0 1.2-1.2 2.2-4 2.7v-3.5h-3V17h-2.8v-3.8h-3.1v3.5c-2.8-.4-4.2-1.3-4.2-2.7 0-.8.1-1.3.5-2.3h-4.3c-.3.9-.5 1.4-.5 2.2 0 2.8 2.9 4.8 8.5 5.5M72.5 38.6c-1.7-1.2-4-1-5.4.6L47.2 61.5 35.4 51.2c-1.5-1.3-3.7-1.3-5.2-.1-1.5 1.3-1.9 3.4-.9 5.2L44 81.7c.7 1.2 2 2 3.5 2 1.4 0 2.7-.7 3.5-2l22.6-37.8c1.1-1.8.6-4.1-1.1-5.3"/></svg>