<?xml version="1.0" encoding="UTF-8"?>
<svg width="50px" height="50px" viewBox="0 0 50 50" version="1.1" xmlns="http://www.w3.org/2000/svg" xmlns:xlink="http://www.w3.org/1999/xlink">
    <!-- Generator: Sketch 45.1 (43504) - http://www.bohemiancoding.com/sketch -->
    <title>Combined Shape</title>
    <desc>Created with Sketch.</desc>
    <defs></defs>
    <g id="Page-1" stroke="none" stroke-width="1" fill="none" fill-rule="evenodd">
        <path d="M21.4287,1.9999 L21.4287,11.4869 C21.4287,13.4869 19.4287,13.4869 19.4287,13.4869 L1.9997,13.4869 C-0.0003,13.4869 -0.0003,11.4869 -0.0003,11.4869 L-0.0003,1.9999 C-0.0003,-0.0001 1.9997,-0.0001 1.9997,-0.0001 L19.4287,-0.0001 C21.4287,-0.0001 21.4287,1.9999 21.4287,1.9999 Z M50,20.2567 L50,29.7437 C50,31.7437 48,31.7437 48,31.7437 L2,31.7437 C0,31.7437 0,29.7437 0,29.7437 L0,20.2567 C0,18.2567 2,18.2567 2,18.2567 L48,18.2567 C50,18.2567 50,20.2567 50,20.2567 Z M33.54,38.5133 L33.54,48.0003 C33.54,50.0003 31.54,50.0003 31.54,50.0003 L2,50.0003 C0,50.0003 0,48.0003 0,48.0003 L0,38.5133 C0,36.5133 2,36.5133 2,36.5133 L31.54,36.5133 C33.54,36.5133 33.54,38.5133 33.54,38.5133 Z" id="Combined-Shape" fill="#99D8F4"></path>
    </g>
</svg>