<?xml version="1.0" encoding="utf-8"?>
<!-- Generator: Adobe Illustrator 19.0.1, SVG Export Plug-In . SVG Version: 6.00 Build 0)  -->
<svg version="1.1" id="Laag_1" xmlns="http://www.w3.org/2000/svg" xmlns:xlink="http://www.w3.org/1999/xlink" x="0px" y="0px"
	 width="92.4px" height="158.5px" viewBox="0 0 92.4 158.5" style="enable-background:new 0 0 92.4 158.5;" xml:space="preserve">
<style type="text/css">
	.st0{fill:#1D1D1B;}
</style>
<path class="st0" d="M79.3,158.5c1.3,0,2.7-0.6,3.7-1.6l7.9-8c1-0.9,1.6-2.4,1.6-3.7c0-1.3-0.6-2.7-1.6-3.7L28.4,79.3l62.4-62.4
	c1-0.9,1.6-2.4,1.6-3.7c0-1.4-0.6-2.7-1.6-3.7l-7.9-7.9C82,0.6,80.5,0,79.3,0c-1.3,0-2.7,0.6-3.7,1.6l-74,74C0.6,76.6,0,78,0,79.3
	c0,1.3,0.6,2.7,1.6,3.7l74,74C76.5,157.9,78,158.5,79.3,158.5"/>
</svg>
