<?xml version="1.0" encoding="utf-8"?>
<!-- Generator: Adobe Illustrator 19.0.1, SVG Export Plug-In . SVG Version: 6.00 Build 0)  -->
<svg version="1.1" id="Laag_1" xmlns="http://www.w3.org/2000/svg" xmlns:xlink="http://www.w3.org/1999/xlink" x="0px" y="0px"
	 width="158.5px" height="92.4px" viewBox="0 0 158.5 92.4" style="enable-background:new 0 0 158.5 92.4;" xml:space="preserve">
<style type="text/css">
	.st0{fill:#1D1D1B;}
</style>
<path class="st0" d="M0,79.3c0,1.3,0.6,2.7,1.6,3.7l8,7.9c0.9,1,2.4,1.6,3.7,1.6c1.3,0,2.7-0.6,3.7-1.6l62.4-62.4l62.4,62.4
	c0.9,1,2.4,1.6,3.7,1.6c1.4,0,2.7-0.6,3.7-1.6l7.9-7.9c0.9-0.9,1.6-2.4,1.6-3.7c0-1.3-0.6-2.7-1.6-3.7l-74-74C82,0.6,80.5,0,79.3,0
	c-1.3,0-2.7,0.6-3.7,1.6l-74,74C0.6,76.5,0,78,0,79.3"/>
</svg>
