<?xml version="1.0" encoding="utf-8"?>
<!-- Generator: Adobe Illustrator 19.0.1, SVG Export Plug-In . SVG Version: 6.00 Build 0)  -->
<svg version="1.1" id="Laag_1" xmlns="http://www.w3.org/2000/svg" xmlns:xlink="http://www.w3.org/1999/xlink" x="0px" y="0px"
	 width="158.5px" height="92.4px" viewBox="0 0 158.5 92.4" style="enable-background:new 0 0 158.5 92.4;" xml:space="preserve">
<style type="text/css">
	.st0{fill:#1D1D1B;}
</style>
<path class="st0" d="M158.5,13.2c0-1.3-0.6-2.7-1.6-3.7l-8-7.9c-0.9-1-2.4-1.6-3.7-1.6c-1.3,0-2.7,0.6-3.7,1.6L79.3,64L16.8,1.6
	c-0.9-1-2.4-1.6-3.7-1.6c-1.4,0-2.7,0.6-3.7,1.6L1.6,9.5C0.6,10.5,0,11.9,0,13.2c0,1.3,0.6,2.7,1.6,3.7l74,74
	c0.9,0.9,2.4,1.6,3.7,1.6c1.3,0,2.7-0.6,3.7-1.6l74-74C157.9,15.9,158.5,14.5,158.5,13.2"/>
</svg>
