<?xml version="1.0" encoding="utf-8"?>
<!-- Generator: Adobe Illustrator 19.0.1, SVG Export Plug-In . SVG Version: 6.00 Build 0)  -->
<svg version="1.1" id="Laag_1" xmlns="http://www.w3.org/2000/svg" xmlns:xlink="http://www.w3.org/1999/xlink" x="0px" y="0px"
	 width="92.4px" height="158.5px" viewBox="0 0 92.4 158.5" style="enable-background:new 0 0 92.4 158.5;" xml:space="preserve">
<style type="text/css">
	.st0{fill:#1D1D1B;}
</style>
<path class="st0" d="M13.2,0c-1.3,0-2.7,0.6-3.7,1.6l-7.9,8c-1,0.9-1.6,2.4-1.6,3.7c0,1.3,0.6,2.7,1.6,3.7L64,79.3L1.6,141.7
	c-1,0.9-1.6,2.4-1.6,3.7c0,1.4,0.6,2.7,1.6,3.7l7.9,7.9c0.9,0.9,2.4,1.6,3.7,1.6c1.3,0,2.7-0.6,3.7-1.6l74-74
	c0.9-0.9,1.6-2.4,1.6-3.7c0-1.3-0.6-2.7-1.6-3.7l-74-74C15.9,0.6,14.5,0,13.2,0"/>
</svg>
