<?xml version="1.0" encoding="utf-8"?>
<!-- Generator: Adobe Illustrator 19.0.1, SVG Export Plug-In . SVG Version: 6.00 Build 0)  -->
<svg version="1.1" id="Laag_1" xmlns="http://www.w3.org/2000/svg" xmlns:xlink="http://www.w3.org/1999/xlink" x="0px" y="0px"
	 width="250px" height="225px" viewBox="0 0 250 225" style="enable-background:new 0 0 250 225;" xml:space="preserve">
<g>
	<path d="M124.9,85.1c-22.1,0-40,17.9-40,40c0,22.1,17.9,40,40,40s40-17.9,40-40C164.9,103,147,85.1,124.9,85.1z"/>
	<path d="M224.9,25h-39.6L162.4,0h-75L64.6,25H25C11.2,25,0,36.3,0,50.1V200c0,13.7,11.2,25,25,25h199.9c13.7,0,25.1-11.2,25.1-25
		V50.1C250,36.3,238.6,25,224.9,25z M124.9,187.5c-34.5,0-62.5-28-62.5-62.5c0-34.5,28-62.5,62.5-62.5s62.5,28,62.5,62.5
		C187.4,159.5,159.4,187.5,124.9,187.5z"/>
</g>
</svg>
