<?xml version="1.0" encoding="utf-8"?>
<!-- Generator: Adobe Illustrator 19.0.1, SVG Export Plug-In . SVG Version: 6.00 Build 0)  -->
<svg version="1.1" id="Laag_1" xmlns="http://www.w3.org/2000/svg" xmlns:xlink="http://www.w3.org/1999/xlink" x="0px" y="0px"
	 width="164.7px" height="158.1px" viewBox="0 0 164.7 158.1" style="enable-background:new 0 0 164.7 158.1;" xml:space="preserve"
	>
<path d="M146.8,3.5C125.3,0,89.5,0,82.4,0c-7.2,0-43,0-64.5,3.5C10.5,4.7,4.8,10.3,3.6,17.6C0,38.7,0,57.7,0,64.7c0,7,0,26,3.6,47.1
	c1.2,7.3,6.9,12.9,14.3,14.1c2.8,0.5,5.9,0.9,9.1,1.2l16-21.2c0.8-1.2,1.6-0.3,1.6-0.3l-13.8,46.8l0,0l-0.2,0.7c-0.2,1,0,2.1,0.6,3
	c1.3,2,4.1,2.6,6.2,1.3l47.8-28c10.9,0,42.2-0.3,61.8-3.5c7.4-1.2,13.1-6.8,14.3-14.1c3.6-21.1,3.6-40.1,3.6-47.1
	c0-21.1,0-26-3.6-47.1C159.9,10.3,154.3,4.7,146.8,3.5"/>
</svg>
