<?xml version="1.0" encoding="utf-8"?>
<!-- Generator: Adobe Illustrator 19.0.1, SVG Export Plug-In . SVG Version: 6.00 Build 0)  -->
<svg version="1.1" id="Laag_1" xmlns="http://www.w3.org/2000/svg" xmlns:xlink="http://www.w3.org/1999/xlink" x="0px" y="0px"
	 width="30.7px" height="30.7px" viewBox="0 0 30.7 30.7" enable-background="new 0 0 30.7 30.7" xml:space="preserve">
<path fill="#010202" d="M15.4,0C6.9,0,0,6.9,0,15.4c0,8.5,6.9,15.4,15.4,15.4c8.5,0,15.4-6.9,15.4-15.4C30.7,6.9,23.9,0,15.4,0z
	 M23.2,11.6l-8.6,11.3c-0.2,0.3-0.7,0.4-1,0.1l-7.4-7c-0.3-0.3-0.3-0.7,0-1l1.9-1.9c0.3-0.3,0.7-0.3,1,0l4.6,4.4L20,9.2
	c0.2-0.3,0.6-0.4,0.9-0.1l2.1,1.6C23.4,10.9,23.4,11.3,23.2,11.6z"/>
</svg>
