<svg xmlns="http://www.w3.org/2000/svg" width="370.1" height="220.8" viewBox="0 0 370.1 220.8"><path d="M117.7 135.6c-5.2-1.7-10-3.1-13.2-4-2.3-.6-3.7-2.6-4.3-4.9-.8-2.9-1.1-6.6-1.1-6.6 6-7 10.5-15.5 12-26.5 6.1-1.9 7.3-9.6 7.3-14.3 0-4.8-.8-7.4-2.5-8.2-1.5-.7-2.9-.2-3.8.3.9-9.8 2.3-30.1-1.8-37.6-4.4-8.1-9.7-11.3-19.8-8.7-6.7-3.7-11.2-8.3-22.8-5-8.1 2.3-17 6.4-21.6 12.7-5.2 7-4 29.2-3.1 39.1-.6-.5-2.5-1.7-4.5-.8-1.7.8-2.5 3.4-2.5 8.2 0 4.8 1.2 12.4 7.3 14.3 1.4 11.4 5.8 19.5 11.7 26.3 0 0-.1 3.5-.8 6.7-.5 2.4-2 4.4-4.3 5.1-9.5 2.7-32.1 9.6-39.5 17.5C.8 159.2 0 196.8 0 196.8h73.1c3-16 8.3-35.6 17.1-44.9 5.9-6.2 16.2-11.7 27.5-16.3zM360.1 155.7c-3.2-3.4-9.7-7.1-16.8-10.6-9.3-4.6-19.7-8.7-25.2-10.7-2.1-.8-3.5-2.7-3.8-5-.5-2.8-1-6.9-1.4-10.3 14-.6 25.6-1.9 30.4-3.8 1-.4 1.4-1.2 1-2.2-2.6-5.8-9.5-24.7-10.3-34.5-2.1-24.2-2-67.6-35.2-56.8 0 0-21.1-13.5-38.2 9.1-12 15.9-9.1 36.8-9.6 48.4-.3 8.3-7.1 27.4-10 32.4-.6 1.1-.4 2.1.7 2.5 5.2 1.9 16.8 3.3 30.5 4.2-.4 3.5-.9 7.8-1.5 10.9-.4 2.2-1.7 4.2-3.8 5-2.3.9-5.5 2.1-9.1 3.6 10.3 4.5 17.8 9.2 22.4 13.9 8.8 9.3 14 28.9 17 44.9h73.1c-.2.1-.7-31-10.2-41z"/><path d="M219.7 139.5c-3.4-.9-5.7-3.8-6.5-7.3-.7-3-1-6.5-1-6.5 8.1-9 14.1-19.9 16.1-34.3 7.7-2.4 9.3-12 9.3-18s-1.1-9.3-3.2-10.3c-1-.5-2.1-.5-3-.3.8-12.5 1.5-37.3-3.7-46.7C222 6 214.4 3.3 201.2 6.6c-8.7-4.6-14.6-9.1-29.8-5-10.6 2.9-22.1 7.6-28.2 15.4-6.6 8.5-5.3 33.1-4.2 45.8-1-.3-2.1-.3-3.3.2-2.2 1-3.2 4.3-3.2 10.3 0 6 1.5 15.7 9.3 18 2.5 20.6 12.8 32.7 25.5 43.4 3.4 2.8 9.4 4.3 15.7 4.6.6 1 .6 2.2-1.7 3-3.8 1.2-15.6 3-28.3-3.6-.1-.1-.2-.1-.3-.2-9.5 2.6-42.3 11.9-52.5 22.7-11.9 12.6-16.6 59.5-16.6 59.5h203s-4.5-46.9-16.4-59.5c-9.3-9.6-37.8-18.2-50.5-21.7z"/></svg>