<?xml version="1.0" encoding="utf-8"?>
<!-- Generator: Adobe Illustrator 19.0.1, SVG Export Plug-In . SVG Version: 6.00 Build 0)  -->
<svg version="1.1" id="Laag_1" xmlns="http://www.w3.org/2000/svg" xmlns:xlink="http://www.w3.org/1999/xlink" x="0px" y="0px"
	 width="10.8px" height="14px" viewBox="0 0 10.8 14" style="enable-background:new 0 0 10.8 14;" xml:space="preserve">
<path d="M6.5,11.5H3v-3h3.5C7.3,8.5,8,9.2,8,10S7.3,11.5,6.5,11.5 M3,2.5h3c0.8,0,1.5,0.7,1.5,1.5S6.8,5.5,6,5.5H3V2.5z M8.6,6.8
	c1-0.7,1.6-1.8,1.6-2.8c0-2.3-1.8-4-4-4H0v14h7c2.1,0,3.7-1.7,3.7-3.8C10.8,8.7,9.9,7.4,8.6,6.8"/>
</svg>
