<?xml version="1.0" encoding="utf-8"?>
<!-- Generator: Adobe Illustrator 19.0.1, SVG Export Plug-In . SVG Version: 6.00 Build 0)  -->
<svg version="1.1" id="Laag_1" xmlns="http://www.w3.org/2000/svg" xmlns:xlink="http://www.w3.org/1999/xlink" x="0px" y="0px"
	 width="20px" height="10px" viewBox="0 0 20 10" style="enable-background:new 0 0 20 10;" xml:space="preserve">
<path d="M15,0h-4v1.9h4c1.7,0,3.1,1.4,3.1,3.1S16.7,8.1,15,8.1h-4V10h4c2.8,0,5-2.2,5-5S17.8,0,15,0 M6,6h8V4H6V6z M1.9,5
	c0-1.7,1.4-3.1,3.1-3.1h4V0H5C2.2,0,0,2.2,0,5s2.2,5,5,5h4V8.1H5C3.3,8.1,1.9,6.7,1.9,5"/>
</svg>
