<?xml version="1.0" encoding="utf-8"?>
<!-- Generator: Adobe Illustrator 19.0.1, SVG Export Plug-In . SVG Version: 6.00 Build 0)  -->
<svg version="1.1" id="Laag_1" xmlns="http://www.w3.org/2000/svg" xmlns:xlink="http://www.w3.org/1999/xlink" x="0px" y="0px"
	 width="18.5px" height="14.8px" viewBox="0 0 18.5 14.8" style="enable-background:new 0 0 18.5 14.8;" xml:space="preserve">
<g>
	<path d="M4.5,2.5h14v-2h-14V2.5z M4.5,8.5h14v-2h-14V8.5z M4.5,14.5h14v-2h-14V14.5z M1.5,12.2c-0.7,0-1.3,0.6-1.3,1.3
		s0.6,1.3,1.3,1.3s1.3-0.6,1.3-1.3S2.2,12.2,1.5,12.2 M1.5,0C0.7,0,0,0.7,0,1.5S0.7,3,1.5,3S3,2.3,3,1.5S2.3,0,1.5,0 M1.5,6
		C0.7,6,0,6.7,0,7.5S0.7,9,1.5,9S3,8.3,3,7.5S2.3,6,1.5,6"/>
</g>
</svg>
