<svg xmlns="http://www.w3.org/2000/svg" width="79.5" height="50.3" viewBox="0 0 79.5 50.3"><path d="M39.7 43.7c-21.9 0-31.6-18.5-31.6-18.5s4.4-8.4 14-13.9c-1.1 2-1.9 4.1-2.1 6.4-1.4 11.2 8 20.7 19.8 20.7 10.5 0 19.1-7.5 19.9-17.1.5-6.4-5.8-10.3-12.1-13.4-.3-.1-.2-.4-.2-.4 16.6 3.5 24 17.7 24 17.7s-9.8 18.5-31.7 18.5m0-31.9c4.8 0 8.7 3.6 8.7 8.1S44.5 28 39.7 28 31 24.4 31 19.9s3.9-8.1 8.7-8.1m38.7 9.8C73.7 14.7 61.3 0 39.7 0S5.8 14.7 1.1 21.6c-1.5 2.2-1.5 4.9 0 7.1 4.7 6.9 17.1 21.6 38.6 21.6s34-14.7 38.6-21.6c1.5-2.2 1.5-4.9.1-7.1"/></svg>