<?xml version="1.0" encoding="utf-8"?>
<!-- Generator: Adobe Illustrator 19.1.0, SVG Export Plug-In . SVG Version: 6.00 Build 0)  -->
<svg version="1.1" id="Laag_1" xmlns="http://www.w3.org/2000/svg" xmlns:xlink="http://www.w3.org/1999/xlink" x="0px" y="0px"
	 width="20px" height="16.7px" viewBox="0 0 20 16.7" style="enable-background:new 0 0 20 16.7;" xml:space="preserve">
<metadata><?xpacket begin="﻿" id="W5M0MpCehiHzreSzNTczkc9d"?>
<x:xmpmeta xmlns:x="adobe:ns:meta/" x:xmptk="Adobe XMP Core 5.6-c067 79.157747, 2015/03/30-23:40:42        ">
   <rdf:RDF xmlns:rdf="http://www.w3.org/1999/02/22-rdf-syntax-ns#">
      <rdf:Description rdf:about=""/>
   </rdf:RDF>
</x:xmpmeta>
                                                                                                    
                                                                                                    
                                                                                                    
                                                                                                    
                                                                                                    
                                                                                                    
                                                                                                    
                                                                                                    
                                                                                                    
                                                                                                    
                                                                                                    
                                                                                                    
                                                                                                    
                                                                                                    
                                                                                                    
                                                                                                    
                                                                                                    
                                                                                                    
                                                                                                    
                                                                                                    
                           
<?xpacket end="w"?></metadata>
<g>
	<path d="M0.7,14.9h0.7V14h10v0.9h0.7c0.4,0,0.7,0.4,0.7,0.9c0,0.5-0.3,0.9-0.7,0.9H0.7c-0.4,0-0.7-0.4-0.7-0.9
		C0,15.3,0.3,14.9,0.7,14.9"/>
	<path d="M8.3,11.6C8,11.9,7.5,12,7.2,11.7L3.7,8.2C3.4,8,3.5,7.5,3.8,7.1C4.2,6.8,4.7,6.7,4.9,7l3.5,3.5
		C8.7,10.8,8.6,11.3,8.3,11.6"/>
	<path d="M15.1,4.8c-0.3,0.3-0.8,0.4-1.1,0.1l-3.5-3.5c-0.3-0.3-0.2-0.8,0.1-1.1C11,0,11.5-0.1,11.8,0.2l3.5,3.5
		C15.5,3.9,15.5,4.4,15.1,4.8"/>
	<path d="M10,1.9l3.5,3.5L11.9,7l7.8,7.8c0.2,0.2,0.2,0.4,0.2,0.6c0,0.1,0,0.2-0.1,0.3c-0.1,0.2-0.3,0.4-0.5,0.5
		c-0.1,0-0.2,0.1-0.3,0.1c-0.2,0-0.4-0.1-0.6-0.2l-7.8-7.8l0,0L8.9,10L5.4,6.5L10,1.9z"/>
</g>
</svg>
