<svg xmlns="http://www.w3.org/2000/svg" width="20" height="16.7" viewBox="0 0 20 16.7"><path d="M.7 14.9h.7V14h10v.9h.7c.4 0 .7.4.7.9s-.3.9-.7.9H.7c-.4 0-.7-.4-.7-.9s.3-.9.7-.9M8.3 11.6c-.3.3-.8.4-1.1.1L3.7 8.2c-.3-.2-.2-.7.1-1.1.4-.3.9-.4 1.1-.1l3.5 3.5c.3.3.2.8-.1 1.1M15.1 4.8c-.3.3-.8.4-1.1.1l-3.5-3.5c-.3-.3-.2-.8.1-1.1.4-.3.9-.4 1.2-.1l3.5 3.5c.2.2.2.7-.2 1.1M10 1.9l3.5 3.5L11.9 7l7.8 7.8c.2.2.2.4.2.6 0 .1 0 .2-.1.3-.1.2-.3.4-.5.5-.1 0-.2.1-.3.1-.2 0-.4-.1-.6-.2l-7.8-7.8L8.9 10 5.4 6.5 10 1.9z"/></svg>