<?xml version="1.0" encoding="utf-8"?>
<!-- Generator: Adobe Illustrator 19.1.0, SVG Export Plug-In . SVG Version: 6.00 Build 0)  -->
<svg version="1.1" id="Laag_1" xmlns="http://www.w3.org/2000/svg" xmlns:xlink="http://www.w3.org/1999/xlink" x="0px" y="0px"
	 width="20px" height="20px" viewBox="0 0 20 20" style="enable-background:new 0 0 20 20;" xml:space="preserve">
<metadata><?xpacket begin="﻿" id="W5M0MpCehiHzreSzNTczkc9d"?>
<x:xmpmeta xmlns:x="adobe:ns:meta/" x:xmptk="Adobe XMP Core 5.6-c067 79.157747, 2015/03/30-23:40:42        ">
   <rdf:RDF xmlns:rdf="http://www.w3.org/1999/02/22-rdf-syntax-ns#">
      <rdf:Description rdf:about=""/>
   </rdf:RDF>
</x:xmpmeta>
                                                                                                    
                                                                                                    
                                                                                                    
                                                                                                    
                                                                                                    
                                                                                                    
                                                                                                    
                                                                                                    
                                                                                                    
                                                                                                    
                                                                                                    
                                                                                                    
                                                                                                    
                                                                                                    
                                                                                                    
                                                                                                    
                                                                                                    
                                                                                                    
                                                                                                    
                                                                                                    
                           
<?xpacket end="w"?></metadata>
<path d="M19.6,2.2c-0.2-0.9-0.8-1.6-1.7-1.7C15.2,0,10.9,0,10,0C9.1,0,4.8,0,2.2,0.4C1.3,0.6,0.6,1.3,0.4,2.2C0,4.8,0,9.1,0,10
	c0,0.9,0,5.2,0.4,7.8c0.1,0.9,0.8,1.6,1.7,1.7C4.8,20,9.1,20,10,20c0.9,0,5.2,0,7.8-0.4c0.9-0.2,1.6-0.8,1.7-1.7
	c0.4-2.6,0.4-7,0.4-7.8C20,7.4,20,4.8,19.6,2.2z M10.2,15.8c-0.3,0.3-0.6,0.5-1.1,0.5c-0.5,0-0.9-0.1-1.1-0.4
	c-0.3-0.3-0.4-0.7-0.4-1.2c0-0.5,0.1-0.9,0.4-1.2S8.6,13,9.1,13c0.5,0,0.9,0.1,1.1,0.4c0.3,0.3,0.4,0.7,0.4,1.2
	C10.6,15.2,10.5,15.5,10.2,15.8z M13,8.4c-0.3,0.5-0.8,0.9-1.6,1.3l-0.9,0.5c-0.3,0.1-0.5,0.3-0.6,0.5c-0.1,0.2-0.2,0.4-0.2,0.6
	c0,0.2,0,0.3,0.1,0.5c0,0.2,0.1,0.3,0.2,0.5l-1.9,0.1c-0.2-0.2-0.3-0.4-0.5-0.6c-0.1-0.2-0.2-0.5-0.2-0.8c0-0.4,0.1-0.8,0.3-1.1
	c0.2-0.3,0.6-0.7,1.1-1l1-0.5c0.4-0.2,0.7-0.4,0.8-0.6C10.9,7.4,11,7.1,11,6.9c0-0.3-0.1-0.5-0.4-0.7c-0.3-0.2-0.7-0.3-1.3-0.3
	c-0.4,0-0.7,0-1.1,0.1C7.7,6,7,6.2,7,6.4V4.3c0-0.2,0.8-0.4,1.4-0.5c0.5-0.1,1-0.2,1.6-0.2c1.1,0,1.9,0.3,2.6,0.8s1,1.2,1,2.1
	C13.5,7.3,13.3,7.9,13,8.4z"/>
</svg>
