<svg xmlns="http://www.w3.org/2000/svg" width="20" height="20" viewBox="0 0 20 20"><path d="M19.6 2.2c-.2-.9-.8-1.6-1.7-1.7-2.7-.5-7-.5-7.9-.5-.9 0-5.2 0-7.8.4C1.3.6.6 1.3.4 2.2 0 4.8 0 9.1 0 10c0 .9 0 5.2.4 7.8.1.9.8 1.6 1.7 1.7 2.7.5 7 .5 7.9.5.9 0 5.2 0 7.8-.4.9-.2 1.6-.8 1.7-1.7.4-2.6.4-7 .4-7.8.1-2.7.1-5.3-.3-7.9zm-9.4 13.6c-.3.3-.6.5-1.1.5-.5 0-.9-.1-1.1-.4-.3-.3-.4-.7-.4-1.2s.1-.9.4-1.2.6-.5 1.1-.5c.5 0 .9.1 1.1.4.3.3.4.7.4 1.2 0 .6-.1.9-.4 1.2zM13 8.4c-.3.5-.8.9-1.6 1.3l-.9.5c-.3.1-.5.3-.6.5-.1.2-.2.4-.2.6 0 .2 0 .3.1.5 0 .2.1.3.2.5l-1.9.1c-.2-.2-.3-.4-.5-.6-.1-.2-.2-.5-.2-.8 0-.4.1-.8.3-1.1.2-.3.6-.7 1.1-1l1-.5c.4-.2.7-.4.8-.6.3-.4.4-.7.4-.9 0-.3-.1-.5-.4-.7-.3-.2-.7-.3-1.3-.3-.4 0-.7 0-1.1.1-.5 0-1.2.2-1.2.4V4.3c0-.2.8-.4 1.4-.5.5-.1 1-.2 1.6-.2 1.1 0 1.9.3 2.6.8s1 1.2 1 2.1c-.1.8-.3 1.4-.6 1.9z"/></svg>