<?xml version="1.0" encoding="utf-8"?>
<!-- Generator: Adobe Illustrator 19.0.1, SVG Export Plug-In . SVG Version: 6.00 Build 0)  -->
<svg version="1.1" id="Laag_1" xmlns="http://www.w3.org/2000/svg" xmlns:xlink="http://www.w3.org/1999/xlink" x="0px" y="0px"
	 width="17.5px" height="14.7px" viewBox="0 0 17.5 14.7" enable-background="new 0 0 17.5 14.7" xml:space="preserve">
<g>
	<path fill="#010202" d="M4.5,1.4h8l0.1,0.7H14l-0.1-1.5c0-0.3-0.2-0.6-0.5-0.6H3.8C3.5,0,3.2,0.3,3.2,0.6L3.1,2.1h1.3L4.5,1.4z"/>
	<path fill="#010202" d="M16.8,2.8H0.7C0.3,2.8,0,3.1,0,3.5v5.9c0,0.4,0.3,0.7,0.7,0.7h1.6l4.2,4.3c0.1,0.1,0.3,0.2,0.5,0.2h7.8
		c0.3,0,0.6-0.3,0.6-0.6l-0.5-4h1.9c0.4,0,0.7-0.3,0.7-0.7V3.5C17.5,3.1,17.2,2.8,16.8,2.8z M7.4,13.3c0,0-0.2,0.7-0.3,0.8
		S7,14.3,7,14.3v-1v-0.7v-2.1c0-0.2-0.2-0.4-0.4-0.4h-3L4.1,7h9l0.7,6.3H7.4z M15.7,5.3C15.3,5.3,15,5,15,4.5c0-0.4,0.3-0.8,0.8-0.8
		c0.4,0,0.8,0.3,0.8,0.8C16.5,5,16.2,5.3,15.7,5.3z"/>
</g>
</svg>
