<svg id="Laag_1" xmlns="http://www.w3.org/2000/svg" xmlns:xlink="http://www.w3.org/1999/xlink" width="5.9" height="10.7" viewBox="0 0 5.9 10.7"><style>.st0{clip-path:url(#SVGID_2_)}</style><defs><path id="SVGID_1_" d="M0 0h5.9v10.7H0z"/></defs><clipPath id="SVGID_2_"><use xlink:href="#SVGID_1_" overflow="visible"/></clipPath><path class="st0" d="M1.2 10.4c.2.2.6.3 1 .3s.8-.1 1-.4c.2-.3.3-.6.3-1 0-.5-.1-.8-.3-1.1-.2-.2-.6-.4-1-.4s-.8.1-1 .4C1 8.6.9 9 .9 9.4c0 .4.1.7.3 1M5 .7C4.4.2 3.7 0 2.8 0c-.5 0-1 0-1.4.1C.9.2.4.3 0 .5v1.7c.4-.1.8-.2 1.1-.3.4-.1.7-.1 1.1-.1.5 0 .9.1 1.1.3.2.2.4.4.4.6 0 .2-.1.4-.2.6-.1.2-.3.4-.6.5l-.9.5c-.4.3-.7.5-.9.8-.2.3-.3.6-.3 1 0 .3 0 .5.1.7.1.2.3.4.4.5l1.6-.1c-.1-.1-.1-.3-.2-.4 0-.1-.1-.3-.1-.4 0-.2.1-.3.2-.5.1-.1.3-.3.5-.4l.8-.4c.7-.4 1.1-.7 1.4-1.1.3-.4.4-.9.4-1.5 0-.8-.3-1.4-.9-1.8"/></svg>