<?xml version="1.0" encoding="utf-8"?>
<!-- Generator: Adobe Illustrator 19.0.1, SVG Export Plug-In . SVG Version: 6.00 Build 0)  -->
<svg version="1.1" id="Laag_1" xmlns="http://www.w3.org/2000/svg" xmlns:xlink="http://www.w3.org/1999/xlink" x="0px" y="0px"
	 width="5.9px" height="10.7px" viewBox="0 0 5.9 10.7" style="enable-background:new 0 0 5.9 10.7;" xml:space="preserve">
<style type="text/css">
	.st0{clip-path:url(#SVGID_2_);}
</style>
<g>
	<defs>
		<rect id="SVGID_1_" width="5.9" height="10.7"/>
	</defs>
	<clipPath id="SVGID_2_">
		<use xlink:href="#SVGID_1_"  style="overflow:visible;"/>
	</clipPath>
	<path class="st0" d="M1.2,10.4c0.2,0.2,0.6,0.3,1,0.3c0.4,0,0.8-0.1,1-0.4c0.2-0.3,0.3-0.6,0.3-1c0-0.5-0.1-0.8-0.3-1.1
		c-0.2-0.2-0.6-0.4-1-0.4c-0.4,0-0.8,0.1-1,0.4C1,8.6,0.9,9,0.9,9.4C0.9,9.8,1,10.1,1.2,10.4 M5,0.7C4.4,0.2,3.7,0,2.8,0
		c-0.5,0-1,0-1.4,0.1C0.9,0.2,0.4,0.3,0,0.5v1.7C0.4,2.1,0.8,2,1.1,1.9c0.4-0.1,0.7-0.1,1.1-0.1c0.5,0,0.9,0.1,1.1,0.3
		c0.2,0.2,0.4,0.4,0.4,0.6c0,0.2-0.1,0.4-0.2,0.6C3.4,3.5,3.2,3.7,2.9,3.8L2,4.3C1.6,4.6,1.3,4.8,1.1,5.1c-0.2,0.3-0.3,0.6-0.3,1
		c0,0.3,0,0.5,0.1,0.7C1,7,1.2,7.2,1.3,7.3l1.6-0.1C2.8,7.1,2.8,6.9,2.7,6.8c0-0.1-0.1-0.3-0.1-0.4c0-0.2,0.1-0.3,0.2-0.5
		c0.1-0.1,0.3-0.3,0.5-0.4l0.8-0.4C4.8,4.7,5.2,4.4,5.5,4c0.3-0.4,0.4-0.9,0.4-1.5C5.9,1.7,5.6,1.1,5,0.7"/>
</g>
</svg>
