<?xml version="1.0" encoding="utf-8"?>
<!-- Generator: Adobe Illustrator 19.0.1, SVG Export Plug-In . SVG Version: 6.00 Build 0)  -->
<svg version="1.1" id="Laag_1" xmlns="http://www.w3.org/2000/svg" xmlns:xlink="http://www.w3.org/1999/xlink" x="0px" y="0px"
	 width="13px" height="13.1px" viewBox="0 0 13 13.1" enable-background="new 0 0 13 13.1" xml:space="preserve">
<path fill="#010202" d="M5.2,4.8C4.7,4.1,3.8,3.6,2.9,3.6C1.3,3.6,0,4.9,0,6.5c0,1.6,1.3,2.9,2.9,2.9c0.9,0,1.8-0.5,2.3-1.2l3.7,2.2
	c0,0.2-0.1,0.3-0.1,0.5c0,1.1,0.9,2.1,2.1,2.1S13,12.1,13,11s-0.9-2.1-2.1-2.1c-0.5,0-1,0.2-1.4,0.5L5.7,7.2c0-0.2,0.1-0.4,0.1-0.7
	c0-0.2,0-0.5-0.1-0.7l3.8-2.2c0.4,0.3,0.9,0.6,1.4,0.6c1.1,0,2.1-0.9,2.1-2.1S12.1,0,10.9,0S8.8,0.9,8.8,2.1c0,0.2,0,0.3,0.1,0.5
	L5.2,4.8z"/>
</svg>
