<?xml version="1.0" encoding="utf-8"?>
<!-- Generator: Adobe Illustrator 19.1.0, SVG Export Plug-In . SVG Version: 6.00 Build 0)  -->
<svg version="1.1" id="Laag_1" xmlns="http://www.w3.org/2000/svg" xmlns:xlink="http://www.w3.org/1999/xlink" x="0px" y="0px"
	 width="16.3px" height="16px" viewBox="0 0 16.3 16" style="enable-background:new 0 0 16.3 16;" xml:space="preserve">
<metadata><?xpacket begin="﻿" id="W5M0MpCehiHzreSzNTczkc9d"?>
<x:xmpmeta xmlns:x="adobe:ns:meta/" x:xmptk="Adobe XMP Core 5.6-c067 79.157747, 2015/03/30-23:40:42        ">
   <rdf:RDF xmlns:rdf="http://www.w3.org/1999/02/22-rdf-syntax-ns#">
      <rdf:Description rdf:about=""/>
   </rdf:RDF>
</x:xmpmeta>
                                                                                                    
                                                                                                    
                                                                                                    
                                                                                                    
                                                                                                    
                                                                                                    
                                                                                                    
                                                                                                    
                                                                                                    
                                                                                                    
                                                                                                    
                                                                                                    
                                                                                                    
                                                                                                    
                                                                                                    
                                                                                                    
                                                                                                    
                                                                                                    
                                                                                                    
                                                                                                    
                           
<?xpacket end="w"?></metadata>
<g>
	<path d="M15.8,5.5c-1.5-0.3-3.3-0.6-5-0.8C10,3.1,9.4,1.8,8.7,0.4C8.6,0.1,8.4,0,8.1,0C7.9,0,7.7,0.1,7.6,0.4
		C6.9,1.8,6.2,3.1,5.5,4.7C3.8,4.9,2,5.2,0.5,5.5C0,5.6-0.2,6.3,0.2,6.7c1,1.1,2.3,2.4,3.5,3.7c-0.4,1.7-0.7,3.4-1.1,4.9
		c-0.1,0.5,0.5,0.9,1,0.6c1.5-0.7,3.1-1.4,4.5-2.4c1.4,0.9,3,1.7,4.5,2.4c0.5,0.2,1.1-0.1,1-0.6c-0.3-1.5-0.7-3.2-1.1-4.9
		c1.2-1.2,2.5-2.5,3.5-3.7C16.4,6.3,16.3,5.6,15.8,5.5"/>
</g>
</svg>
