<?xml version="1.0" encoding="utf-8"?>
<!-- Generator: Adobe Illustrator 19.0.1, SVG Export Plug-In . SVG Version: 6.00 Build 0)  -->
<svg version="1.1" id="Laag_1" xmlns="http://www.w3.org/2000/svg" xmlns:xlink="http://www.w3.org/1999/xlink" x="0px" y="0px"
	 width="32px" height="32px" viewBox="0 0 32 32" enable-background="new 0 0 32 32" xml:space="preserve">
<path fill="#010202" d="M16,0C7.2,0,0,7.2,0,16c0,8.8,7.2,16,16,16s16-7.2,16-16C32,7.2,24.8,0,16,0z M18.1,21.8
	c-0.4,0.5-1.2,0.5-1.6,0.1c-0.5-0.5-0.5-1.2-0.1-1.6l2.9-3.2l-0.7,0.1H9.8c-0.6,0-1.2-0.6-1.2-1.2c0-0.6,0.6-1.1,1.2-1.1h8.8
	l0.6,0.1l-2.8-3.1c-0.4-0.5-0.4-1.2,0.1-1.7c0.4-0.4,1.2-0.4,1.6,0.1l5.2,5.8L18.1,21.8z"/>
</svg>
