<?xml version="1.0" encoding="utf-8"?>
<!-- Generator: Adobe Illustrator 19.0.1, SVG Export Plug-In . SVG Version: 6.00 Build 0)  -->
<svg version="1.1" id="Laag_1" xmlns="http://www.w3.org/2000/svg" xmlns:xlink="http://www.w3.org/1999/xlink" x="0px" y="0px"
	 width="42.5px" height="57.8px" viewBox="0 0 42.5 57.8" style="enable-background:new 0 0 42.5 57.8;" xml:space="preserve">
<path d="M36.6,15.3h-7.1V8.3h7.1V15.3z M36.6,27.1h-7.1v-7.1h7.1V27.1z M36.6,38.9h-7.1v-7.1h7.1V38.9z M24.8,15.3h-7.1V8.3h7.1
	V15.3z M24.8,27.1h-7.1v-7.1h7.1V27.1z M24.8,38.9h-7.1v-7.1h7.1V38.9z M13,15.3H5.9V8.3H13V15.3z M13,27.1H5.9v-7.1H13V27.1z
	 M13,38.9H5.9v-7.1H13V38.9z M40.1,0H2.4C1.1,0,0,1.1,0,2.4v55.4h17.7V47.2h7.1v10.6h17.7V2.4C42.5,1.1,41.4,0,40.1,0"/>
</svg>
