<?xml version="1.0" encoding="utf-8"?>
<!-- Generator: Adobe Illustrator 19.0.1, SVG Export Plug-In . SVG Version: 6.00 Build 0)  -->
<svg version="1.1" id="Laag_1" xmlns="http://www.w3.org/2000/svg" xmlns:xlink="http://www.w3.org/1999/xlink" x="0px" y="0px"
	 width="14.2px" height="16px" viewBox="0 0 14.2 16" enable-background="new 0 0 14.2 16" xml:space="preserve">
<g>
	<path fill="#010202" d="M11.9,12v1.6H2.4V12H0v3.2C0,15.6,0.4,16,0.8,16h12.7c0.4,0,0.8-0.4,0.8-0.8V12H11.9z"/>
	<path fill="#010202" d="M6.3,11.6C6.5,11.8,6.8,12,7.1,12s0.6-0.2,0.8-0.4l4.6-5.8c0.3-0.4,0.3-1,0-1.4c-0.3-0.4-0.9-0.5-1.4-0.2
		L8.7,5.7V1.1C8.7,0.3,8,0,7.1,0C6.3,0,5.5,0.3,5.5,1.1v4.6L3.1,4.2C2.7,3.9,2.1,4,1.7,4.4c-0.3,0.4-0.4,1,0,1.4L6.3,11.6z"/>
</g>
</svg>
