<?xml version="1.0" encoding="utf-8"?>
<!-- Generator: Adobe Illustrator 19.0.1, SVG Export Plug-In . SVG Version: 6.00 Build 0)  -->
<svg version="1.1" id="Laag_1" xmlns="http://www.w3.org/2000/svg" xmlns:xlink="http://www.w3.org/1999/xlink" x="0px" y="0px"
	 width="20px" height="18px" viewBox="0 0 20 18" style="enable-background:new 0 0 20 18;" xml:space="preserve">
<style type="text/css">
	.st0{fill:none;}
</style>
<g>
	<path class="st0" d="M10,5c-2.8,0-5,2.2-5,5c0,2.8,2.2,5,5,5s5-2.2,5-5C15,7.2,12.8,5,10,5z M10,13.2c-1.8,0-3.2-1.4-3.2-3.2
		c0-1.8,1.4-3.2,3.2-3.2s3.2,1.4,3.2,3.2C13.2,11.8,11.8,13.2,10,13.2z"/>
	<circle cx="10" cy="10" r="3.2"/>
	<path d="M18,2h-3.2L13,0H7L5.2,2H2C0.9,2,0,2.9,0,4v12c0,1.1,0.9,2,2,2h16c1.1,0,2-0.9,2-2V4C20,2.9,19.1,2,18,2z M10,15
		c-2.8,0-5-2.2-5-5c0-2.8,2.2-5,5-5s5,2.2,5,5C15,12.8,12.8,15,10,15z"/>
</g>
</svg>
