<?xml version="1.0" encoding="utf-8"?>
<!-- Generator: Adobe Illustrator 19.0.1, SVG Export Plug-In . SVG Version: 6.00 Build 0)  -->
<svg version="1.1" id="Laag_1" xmlns="http://www.w3.org/2000/svg" xmlns:xlink="http://www.w3.org/1999/xlink" x="0px" y="0px"
	 width="79.5px" height="50.3px" viewBox="0 0 79.5 50.3" style="enable-background:new 0 0 79.5 50.3;" xml:space="preserve">
<path d="M39.7,43.7c-21.9,0-31.6-18.5-31.6-18.5s4.4-8.4,14-13.9c-1.1,2-1.9,4.1-2.1,6.4c-1.4,11.2,8,20.7,19.8,20.7
	c10.5,0,19.1-7.5,19.9-17.1c0.5-6.4-5.8-10.3-12.1-13.4c-0.3-0.1-0.2-0.4-0.2-0.4c16.6,3.5,24,17.7,24,17.7S61.6,43.7,39.7,43.7
	 M39.7,11.8c4.8,0,8.7,3.6,8.7,8.1s-3.9,8.1-8.7,8.1s-8.7-3.6-8.7-8.1S34.9,11.8,39.7,11.8 M78.4,21.6C73.7,14.7,61.3,0,39.7,0
	S5.8,14.7,1.1,21.6c-1.5,2.2-1.5,4.9,0,7.1c4.7,6.9,17.1,21.6,38.6,21.6s34-14.7,38.6-21.6C79.8,26.5,79.8,23.8,78.4,21.6"/>
</svg>
