<?xml version="1.0" encoding="utf-8"?>
<!-- Generator: Adobe Illustrator 19.0.1, SVG Export Plug-In . SVG Version: 6.00 Build 0)  -->
<svg version="1.1" id="Laag_1" xmlns="http://www.w3.org/2000/svg" xmlns:xlink="http://www.w3.org/1999/xlink" x="0px" y="0px"
	 width="145.7px" height="145.7px" viewBox="0 0 145.7 145.7" style="enable-background:new 0 0 145.7 145.7;" xml:space="preserve"
	>
<path d="M72.9,0C32.6,0,0,32.6,0,72.9c0,40.2,32.6,72.9,72.9,72.9s72.9-32.6,72.9-72.9C145.7,32.6,113.1,0,72.9,0z M82.5,99.2
	c-1.9,2.4-5.3,2.5-7.4,0.5c-2.2-2.1-2.5-5.3-0.4-7.5l13.2-14.4l-3,0.7H44.7c-2.9,0-5.3-2.7-5.3-5.6c0-2.9,2.6-5.4,5.5-5.4H85
	l2.7,0.5L74.7,53.7c-2-2.4-1.8-5.5,0.4-7.7c2-1.9,5.3-1.7,7.4,0.4l23.8,26.4L82.5,99.2z"/>
</svg>
